<svg width="33" height="32" viewBox="0 0 33 32" fill="none" xmlns="http://www.w3.org/2000/svg">
<circle cx="16.416" cy="16" r="16" fill="url(#paint0_linear_123_3930)"/>
<path d="M19.9542 22.5551C19.6627 23.2941 18.6168 23.2941 18.3253 22.5551L17.422 20.2648C17.333 20.0392 17.1544 19.8605 16.9288 19.7716L14.6385 18.8683C13.8994 18.5768 13.8994 17.5308 14.6385 17.2394L16.9288 16.3361C17.1544 16.2471 17.333 16.0685 17.422 15.8428L18.3253 13.5526C18.6168 12.8135 19.6627 12.8135 19.9542 13.5526L20.8575 15.8428C20.9465 16.0685 21.1251 16.2471 21.3507 16.3361L23.641 17.2394C24.3801 17.5308 24.3801 18.5768 23.641 18.8683L21.3507 19.7716C21.1251 19.8605 20.9465 20.0392 20.8575 20.2648L19.9542 22.5551Z" fill="white"/>
<path d="M12.5863 14.2501C12.4261 14.6562 11.8513 14.6562 11.6911 14.2501L10.9906 12.4739C10.9417 12.3499 10.8435 12.2517 10.7195 12.2028L8.94329 11.5023C8.53714 11.3421 8.53714 10.7673 8.94329 10.6071L10.7195 9.90657C10.8435 9.85767 10.9417 9.75951 10.9906 9.63551L11.6911 7.8593C11.8513 7.45315 12.4261 7.45315 12.5863 7.8593L13.2868 9.63551C13.3357 9.75951 13.4338 9.85767 13.5578 9.90657L15.3341 10.6071C15.7402 10.7673 15.7402 11.3421 15.3341 11.5023L13.5578 12.2028C13.4338 12.2517 13.3357 12.3499 13.2868 12.4739L12.5863 14.2501Z" fill="white"/>
<path d="M11.2357 23.4465C11.1213 23.7366 10.7107 23.7366 10.5963 23.4465L10.0959 22.1778C10.061 22.0892 9.99089 22.0191 9.90232 21.9841L8.6336 21.4838C8.34349 21.3694 8.34349 20.9588 8.6336 20.8444L9.90232 20.344C9.99089 20.309 10.061 20.2389 10.0959 20.1504L10.5963 18.8816C10.7107 18.5915 11.1213 18.5915 11.2357 18.8816L11.7361 20.1504C11.771 20.2389 11.8411 20.309 11.9297 20.344L13.1984 20.8444C13.4885 20.9588 13.4885 21.3694 13.1984 21.4838L11.9297 21.9841C11.8411 22.0191 11.771 22.0892 11.7361 22.1778L11.2357 23.4465Z" fill="white"/>
<defs>
<linearGradient id="paint0_linear_123_3930" x1="16.416" y1="0" x2="16.416" y2="32" gradientUnits="userSpaceOnUse">
<stop stop-color="#685EDD"/>
<stop offset="1" stop-color="#DA8BFF"/>
</linearGradient>
</defs>
</svg>
