<svg width="21" height="20" viewBox="0 0 21 20" fill="none" xmlns="http://www.w3.org/2000/svg">
<path d="M3.635 15.1133C3.58637 15.1469 3.52948 15.1665 3.4705 15.17C3.41152 15.1735 3.3527 15.1608 3.30043 15.1333C3.24816 15.1057 3.20444 15.0644 3.17401 15.0137C3.14357 14.9631 3.1276 14.905 3.12781 14.846V6.31299H2V15.7581H9.96578C9.3775 15.1927 8.42484 14.423 7.18453 14.3469C5.42875 14.2383 4.09375 14.8005 3.635 15.1133Z" fill="white"/>
<path d="M18.3723 6.31299V14.846C18.3725 14.905 18.3565 14.9631 18.3261 15.0137C18.2957 15.0644 18.2519 15.1057 18.1997 15.1333C18.1474 15.1608 18.0886 15.1735 18.0296 15.17C17.9706 15.1665 17.9137 15.1469 17.8651 15.1133C17.4065 14.8008 16.0731 14.2383 14.3149 14.3469C13.0753 14.423 12.1226 15.1927 11.5337 15.7581H19.5001V6.31299H18.3723Z" fill="white"/>
<path d="M17.7242 14.2984V5.13366C16.716 4.49025 15.5305 4.1813 14.3365 4.25082C13.1426 4.32034 12.0009 4.76478 11.0742 5.52085V6.29382C11.9581 6.3748 12.7798 6.78318 13.3781 7.43881C13.9764 8.09443 14.3081 8.94998 14.3081 9.83757C14.3081 10.7252 13.9764 11.5807 13.3781 12.2363C12.7798 12.892 11.9581 13.3003 11.0742 13.3813V15.3015C11.7241 14.6727 12.8064 13.7896 14.2761 13.6988C15.4572 13.6145 16.6409 13.8203 17.7242 14.2984Z" fill="white"/>
<path d="M13.6602 9.8374C13.6602 9.26183 13.4895 8.69918 13.1697 8.22061C12.8499 7.74203 12.3954 7.36903 11.8637 7.14877C11.3319 6.92851 10.7468 6.87088 10.1823 6.98317C9.61774 7.09545 9.0992 7.37262 8.69221 7.77961C8.28522 8.18661 8.00805 8.70515 7.89576 9.26966C7.78347 9.83418 7.8411 10.4193 8.06137 10.9511C8.28163 11.4828 8.65463 11.9373 9.1332 12.2571C9.61178 12.5769 10.1744 12.7476 10.75 12.7476C11.5215 12.7465 12.2611 12.4396 12.8067 11.8941C13.3522 11.3485 13.6591 10.6089 13.6602 9.8374ZM12.6491 10.1177L9.88141 11.7169C9.83218 11.7455 9.77629 11.7606 9.71938 11.7607C9.66244 11.7608 9.60651 11.7457 9.55734 11.7169C9.50822 11.6885 9.4674 11.6477 9.43897 11.5986C9.41054 11.5495 9.39549 11.4938 9.39531 11.4371V8.23803C9.39537 8.18117 9.41039 8.12533 9.43886 8.07611C9.46732 8.0269 9.50824 7.98604 9.55749 7.95763C9.60674 7.92923 9.6626 7.91429 9.71946 7.9143C9.77632 7.91431 9.83217 7.92929 9.88141 7.95772L12.6491 9.55709C12.6983 9.58545 12.7393 9.62629 12.7677 9.67551C12.7962 9.72472 12.8111 9.78056 12.8111 9.8374C12.8111 9.89425 12.7962 9.95009 12.7677 9.9993C12.7393 10.0485 12.6983 10.0894 12.6491 10.1177Z" fill="white"/>
<path d="M7.1915 9.83757C7.19276 8.95026 7.52494 8.09533 8.1231 7.43996C8.72126 6.78458 9.54238 6.3759 10.4259 6.29382V5.52085C9.49917 4.76478 8.35754 4.32034 7.16355 4.25082C5.96956 4.1813 4.78407 4.49025 3.77588 5.13366V14.2984C4.85918 13.8203 6.04294 13.6145 7.224 13.6988C8.69369 13.7896 9.77603 14.6727 10.4259 15.3015V13.3813C9.54238 13.2992 8.72126 12.8906 8.1231 12.2352C7.52494 11.5798 7.19276 10.7249 7.1915 9.83757Z" fill="white"/>
<path d="M10.0435 10.8748L11.8388 9.83781L10.0435 8.80078V10.8748Z" fill="white"/>
</svg>
