<svg width="73" height="72" viewBox="0 0 73 72" fill="none" xmlns="http://www.w3.org/2000/svg">
<rect x="0.25" width="72" height="72" rx="36" fill="white"/>
<path d="M41.5855 34.8793L40.2793 35.8216C39.6208 36.2971 39.3452 37.1357 39.5936 37.9084L40.0859 39.4416C40.2134 39.839 39.9443 40.0715 39.8588 40.1332C39.7734 40.1942 39.4682 40.3761 39.131 40.1307L37.8315 39.1792C37.5019 38.9387 37.115 38.8179 36.728 38.8179C36.345 38.8179 35.962 38.9357 35.6346 39.1725L34.329 40.1136C33.9903 40.359 33.6863 40.1735 33.6009 40.1112C33.516 40.0489 33.2484 39.8152 33.3787 39.4191L33.8817 37.8889C34.1349 37.1174 33.8649 36.2764 33.2097 35.7978L31.9102 34.8469C31.5736 34.6003 31.6548 34.2543 31.6877 34.1536C31.7207 34.0535 31.8599 33.7282 32.2752 33.7282H32.2779L33.8881 33.7336H33.8945C34.7041 33.7336 35.4173 33.2179 35.67 32.4482L36.1726 30.9187C36.3029 30.5226 36.663 30.4866 36.7625 30.4927C36.8678 30.4933 37.2221 30.525 37.35 30.9224L37.8422 32.4556C38.0906 33.2289 38.8029 33.7501 39.6153 33.7532L41.2257 33.7587C41.6426 33.7599 41.7802 34.0876 41.8125 34.1877C41.8449 34.2884 41.9239 34.6351 41.5855 34.8793Z" fill="url(#paint0_linear_129_7703)"/>
<path d="M52.523 44.1999C51.5709 44.1999 50.7963 43.4254 50.7963 42.4733C50.7963 41.5211 51.5709 40.7466 52.523 40.7466C53.4751 40.7466 54.25 41.5211 54.25 42.4733C54.25 43.4254 53.4751 44.1999 52.523 44.1999Z" fill="url(#paint1_linear_129_7703)"/>
<path d="M41.0423 19.0864C41.9944 19.0864 42.7693 19.861 42.7693 20.8131C42.7693 21.7653 41.9944 22.5398 41.0423 22.5398C40.0901 22.5398 39.3156 21.7653 39.3156 20.8131C39.3156 19.861 40.0901 19.0864 41.0423 19.0864Z" fill="url(#paint2_linear_129_7703)"/>
<path d="M20.977 31.3142C20.0248 31.3142 19.25 30.5391 19.25 29.5869C19.25 28.6348 20.0248 27.8602 20.977 27.8602C21.9291 27.8602 22.7037 28.6348 22.7037 29.5869C22.7037 30.5391 21.9291 31.3142 20.977 31.3142Z" fill="url(#paint3_linear_129_7703)"/>
<path d="M30.6172 52.9133C29.665 52.9133 28.8902 52.1388 28.8902 51.1866C28.8902 50.2345 29.665 49.46 30.6172 49.46C31.5693 49.46 32.3439 50.2345 32.3439 51.1866C32.3439 52.1388 31.5693 52.9133 30.6172 52.9133Z" fill="url(#paint4_linear_129_7703)"/>
<path fill-rule="evenodd" clip-rule="evenodd" d="M52.523 39.4966C54.1645 39.4966 55.5 40.832 55.5 42.4733C55.5 43.5328 54.9393 44.4584 54.1032 44.986C54.7546 47.9815 54.3434 50.3368 52.8782 51.8025C51.8596 52.8212 50.3987 53.3174 48.6235 53.3174C45.4252 53.3174 41.2048 51.7025 36.7056 48.6339C35.6416 49.3593 34.5784 50.0124 33.5324 50.5847C33.5725 50.7792 33.5939 50.9805 33.5939 51.1866C33.5939 52.8279 32.2584 54.1633 30.6172 54.1633C29.5841 54.1633 28.6738 53.6334 28.1398 52.8322C26.9185 53.1637 25.79 53.3387 24.7792 53.3387C22.9939 53.3387 21.5562 52.8242 20.5345 51.8025C17.6809 48.9486 18.9353 42.6276 23.7055 35.6321C22.9799 34.5665 22.3253 33.5003 21.7498 32.4496C21.5018 32.5168 21.246 32.5642 20.977 32.5642C19.3354 32.5642 18 31.2288 18 29.5869C18 28.4869 18.6068 27.5351 19.4967 27.0199C18.5971 23.6643 18.9423 21.0512 20.5345 19.4587C23.3881 16.6042 29.7095 17.8589 36.7053 22.6296C37.2061 22.288 37.7057 21.9636 38.2021 21.6563C38.1219 21.3872 38.0656 21.108 38.0656 20.8131C38.0656 19.1719 39.401 17.8364 41.0423 17.8364C42.013 17.8364 42.8685 18.3103 43.4122 19.0314C47.6413 17.4294 50.9926 17.5725 52.8782 19.4587C55.732 22.3128 54.4776 28.6343 49.7068 35.6302C50.6108 36.959 51.3971 38.2706 52.0544 39.544C52.2081 39.5194 52.3626 39.4966 52.523 39.4966ZM42.7693 20.8131C42.7693 19.861 41.9944 19.0864 41.0423 19.0864C40.0901 19.0864 39.3156 19.861 39.3156 20.8131C39.3156 21.7653 40.0901 22.5398 41.0423 22.5398C41.9944 22.5398 42.7693 21.7653 42.7693 20.8131ZM41.0423 23.7898C40.1458 23.7898 39.3502 23.383 38.804 22.754C38.4683 22.9626 38.1319 23.1785 37.7933 23.4039C39.8569 24.9042 41.8744 26.6208 43.7953 28.5414C45.7153 30.4612 47.4317 32.4785 48.9323 34.5427C53.0754 28.3142 54.3188 22.6675 51.9944 20.3425C50.511 18.8596 47.5949 18.804 43.9435 20.1652C43.9903 20.3744 44.0193 20.59 44.0193 20.8131C44.0193 22.4544 42.6838 23.7898 41.0423 23.7898ZM19.25 29.5869C19.25 30.5391 20.0248 31.3142 20.977 31.3142C21.9291 31.3142 22.7037 30.5391 22.7037 29.5869C22.7037 28.6348 21.9291 27.8602 20.977 27.8602C20.0248 27.8602 19.25 28.6348 19.25 29.5869ZM23.9537 29.5869C23.9537 30.5109 23.5218 31.3275 22.8595 31.874C23.3432 32.7555 23.8843 33.6487 24.4794 34.5445C25.9808 32.4792 27.6973 30.4612 29.6174 28.5414C31.5379 26.6211 33.555 24.9049 35.6182 23.4047C29.3897 19.2619 23.7435 18.0193 21.4183 20.3425C20.1863 21.5748 19.9407 23.8029 20.6874 26.6395C20.7204 26.6362 20.7531 26.6318 20.7857 26.6274C20.8487 26.6188 20.9117 26.6102 20.977 26.6102C22.6182 26.6102 23.9537 27.9457 23.9537 29.5869ZM28.8902 51.1866C28.8902 52.1388 29.665 52.9133 30.6172 52.9133C31.5693 52.9133 32.3439 52.1388 32.3439 51.1866C32.3439 50.2345 31.5693 49.46 30.6172 49.46C29.665 49.46 28.8902 50.2345 28.8902 51.1866ZM30.6172 48.21C31.6048 48.21 32.4754 48.6989 33.0172 49.4417C33.8758 48.9688 34.7466 48.4401 35.6208 47.8585C33.5576 46.3588 31.5397 44.6418 29.6174 42.7192C27.6971 40.799 25.9811 38.7821 24.4808 36.7185C20.3376 42.9475 19.0939 48.5938 21.4183 50.9187C22.647 52.1477 24.8644 52.3955 27.6877 51.6566C27.663 51.5025 27.6402 51.3476 27.6402 51.1866C27.6402 49.5454 28.9756 48.21 30.6172 48.21ZM25.2326 35.6304C26.7519 37.7643 28.5169 39.8512 30.5012 41.8354C32.4868 43.8207 34.5737 45.5859 36.7064 47.1046C38.839 45.5859 40.9259 43.8207 42.9115 41.8354C44.8963 39.8507 46.6612 37.7639 48.1805 35.6307C46.6608 33.4966 44.8957 31.409 42.9115 29.4252C40.927 27.441 38.8401 25.6758 36.7064 24.1566C34.5726 25.6758 32.4857 27.441 30.5012 29.4252C28.5181 31.4082 26.7529 33.4955 25.2326 35.6304ZM37.7945 47.8566C44.023 52 49.6695 53.2436 51.9944 50.9187C53.3778 49.5348 53.3072 47.2636 52.9252 45.4093C52.904 45.4122 52.8828 45.4152 52.8616 45.4182C52.7502 45.4341 52.6387 45.4499 52.523 45.4499C50.8818 45.4499 49.5463 44.1145 49.5463 42.4733C49.5463 41.4394 50.0774 40.5287 50.8798 39.9949C50.3228 38.9275 49.6713 37.831 48.9321 36.7185C47.4323 38.7813 45.716 40.7985 43.7953 42.7192C41.8738 44.641 39.8567 46.3574 37.7945 47.8566ZM50.7963 42.4733C50.7963 43.4254 51.5709 44.1999 52.523 44.1999C53.4751 44.1999 54.25 43.4254 54.25 42.4733C54.25 41.5211 53.4751 40.7466 52.523 40.7466C51.5709 40.7466 50.7963 41.5211 50.7963 42.4733Z" fill="url(#paint5_linear_129_7703)"/>
<defs>
<linearGradient id="paint0_linear_129_7703" x1="36.75" y1="17.8364" x2="36.75" y2="54.1633" gradientUnits="userSpaceOnUse">
<stop stop-color="#E5C500"/>
<stop offset="1" stop-color="#FF7300"/>
</linearGradient>
<linearGradient id="paint1_linear_129_7703" x1="36.75" y1="17.8364" x2="36.75" y2="54.1633" gradientUnits="userSpaceOnUse">
<stop stop-color="#E5C500"/>
<stop offset="1" stop-color="#FF7300"/>
</linearGradient>
<linearGradient id="paint2_linear_129_7703" x1="36.75" y1="17.8364" x2="36.75" y2="54.1633" gradientUnits="userSpaceOnUse">
<stop stop-color="#E5C500"/>
<stop offset="1" stop-color="#FF7300"/>
</linearGradient>
<linearGradient id="paint3_linear_129_7703" x1="36.75" y1="17.8364" x2="36.75" y2="54.1633" gradientUnits="userSpaceOnUse">
<stop stop-color="#E5C500"/>
<stop offset="1" stop-color="#FF7300"/>
</linearGradient>
<linearGradient id="paint4_linear_129_7703" x1="36.75" y1="17.8364" x2="36.75" y2="54.1633" gradientUnits="userSpaceOnUse">
<stop stop-color="#E5C500"/>
<stop offset="1" stop-color="#FF7300"/>
</linearGradient>
<linearGradient id="paint5_linear_129_7703" x1="36.75" y1="17.8364" x2="36.75" y2="54.1633" gradientUnits="userSpaceOnUse">
<stop stop-color="#E5C500"/>
<stop offset="1" stop-color="#FF7300"/>
</linearGradient>
</defs>
</svg>
