<svg width="89" height="36" viewBox="0 0 89 36" fill="none" xmlns="http://www.w3.org/2000/svg">
<circle cx="18.625" cy="18" r="18" fill="url(#paint0_linear_1_1617)"/>
<path d="M22.6033 25.3765C22.2754 26.2079 21.0987 26.2079 20.7707 25.3765L19.7546 22.7999C19.6544 22.5461 19.4535 22.3451 19.1997 22.245L16.6231 21.2288C15.7917 20.9009 15.7917 19.7242 16.6231 19.3963L19.1997 18.3801C19.4535 18.28 19.6544 18.0791 19.7546 17.8252L20.7707 15.2486C21.0987 14.4172 22.2754 14.4172 22.6033 15.2486L23.6195 17.8252C23.7196 18.0791 23.9205 18.28 24.1744 18.3801L26.7509 19.3963C27.5824 19.7242 27.5824 20.9009 26.7509 21.2288L24.1744 22.245C23.9205 22.3451 23.7196 22.5461 23.6195 22.7999L22.6033 25.3765Z" fill="white"/>
<path d="M14.3165 16.0322C14.1363 16.4892 13.4897 16.4892 13.3095 16.0322L12.5214 14.034C12.4663 13.8945 12.3559 13.7841 12.2164 13.7291L10.2182 12.941C9.76126 12.7608 9.76126 12.1141 10.2182 11.9339L12.2164 11.1458C12.3559 11.0908 12.4663 10.9804 12.5214 10.8409L13.3095 8.84263C13.4897 8.38571 14.1363 8.38571 14.3165 8.84263L15.1046 10.8409C15.1596 10.9804 15.2701 11.0908 15.4096 11.1458L17.4078 11.9339C17.8647 12.1141 17.8647 12.7608 17.4078 12.941L15.4096 13.7291C15.2701 13.7841 15.1596 13.8945 15.1046 14.034L14.3165 16.0322Z" fill="white"/>
<path d="M12.7972 26.3802C12.6684 26.7066 12.2066 26.7066 12.0778 26.3802L11.5149 24.9529C11.4756 24.8533 11.3967 24.7744 11.2971 24.7351L9.86978 24.1722C9.54341 24.0434 9.54341 23.5816 9.86978 23.4528L11.2971 22.8899C11.3967 22.8506 11.4756 22.7717 11.5149 22.6721L12.0778 21.2448C12.2066 20.9184 12.6684 20.9184 12.7972 21.2448L13.3601 22.6721C13.3994 22.7717 13.4783 22.8506 13.5779 22.8899L15.0052 23.4528C15.3316 23.5816 15.3316 24.0434 15.0052 24.1722L13.5779 24.7351C13.4783 24.7744 13.3994 24.8533 13.3601 24.9529L12.7972 26.3802Z" fill="white"/>
<circle cx="53.5" cy="18" r="4.5" fill="url(#paint1_linear_1_1617)"/>
<circle cx="66.5" cy="18" r="3.5" fill="url(#paint2_linear_1_1617)"/>
<circle opacity="0.7" cx="77.75" cy="18" r="2.75" fill="url(#paint3_linear_1_1617)"/>
<circle opacity="0.4" cx="87.25" cy="18" r="1.75" fill="url(#paint4_linear_1_1617)"/>
<defs>
<linearGradient id="paint0_linear_1_1617" x1="18.625" y1="0" x2="18.625" y2="36" gradientUnits="userSpaceOnUse">
<stop stop-color="#685EDD"/>
<stop offset="1" stop-color="#DA8BFF"/>
</linearGradient>
<linearGradient id="paint1_linear_1_1617" x1="53.5" y1="13.5" x2="53.5" y2="22.5" gradientUnits="userSpaceOnUse">
<stop stop-color="#685EDD"/>
<stop offset="1" stop-color="#DA8BFF"/>
</linearGradient>
<linearGradient id="paint2_linear_1_1617" x1="66.5" y1="14.5" x2="66.5" y2="21.5" gradientUnits="userSpaceOnUse">
<stop stop-color="#685EDD"/>
<stop offset="1" stop-color="#DA8BFF"/>
</linearGradient>
<linearGradient id="paint3_linear_1_1617" x1="77.75" y1="15.25" x2="77.75" y2="20.75" gradientUnits="userSpaceOnUse">
<stop stop-color="#685EDD"/>
<stop offset="1" stop-color="#DA8BFF"/>
</linearGradient>
<linearGradient id="paint4_linear_1_1617" x1="87.25" y1="16.25" x2="87.25" y2="19.75" gradientUnits="userSpaceOnUse">
<stop stop-color="#685EDD"/>
<stop offset="1" stop-color="#DA8BFF"/>
</linearGradient>
</defs>
</svg>
