<svg width="19" height="18" viewBox="0 0 19 18" fill="none" xmlns="http://www.w3.org/2000/svg">
<path d="M9.75 1.5C7.36827 1.5 5.4375 3.43077 5.4375 5.8125V8.0625C5.4375 10.4442 7.36827 12.375 9.75 12.375C11.9411 12.375 13.7505 10.7409 14.0261 8.625L10.5 8.625C10.1893 8.625 9.9375 8.37316 9.9375 8.0625C9.9375 7.75184 10.1893 7.5 10.5 7.5L14.0625 7.5V6.375H10.5C10.1893 6.375 9.9375 6.12316 9.9375 5.8125C9.9375 5.50184 10.1893 5.25 10.5 5.25H14.0261C13.7505 3.13405 11.9411 1.5 9.75 1.5Z" fill="#6E60DF"/>
<path fill-rule="evenodd" clip-rule="evenodd" d="M3.75 6.75C4.06066 6.75 4.3125 7.00184 4.3125 7.3125V8.0625C4.3125 11.0655 6.74695 13.5 9.75 13.5C12.753 13.5 15.1875 11.0655 15.1875 8.0625V7.3125C15.1875 7.00184 15.4393 6.75 15.75 6.75C16.0607 6.75 16.3125 7.00184 16.3125 7.3125V8.0625C16.3125 11.4974 13.6735 14.3159 10.3125 14.6012V16.3125C10.3125 16.6232 10.0607 16.875 9.75 16.875C9.43934 16.875 9.1875 16.6232 9.1875 16.3125V14.6012C5.82645 14.3159 3.1875 11.4974 3.1875 8.0625V7.3125C3.1875 7.00184 3.43934 6.75 3.75 6.75Z" fill="#6E60DF"/>
</svg>
