<svg width="31" height="30" viewBox="0 0 31 30" fill="none" xmlns="http://www.w3.org/2000/svg">
<rect x="0.75" width="30" height="30" rx="15" fill="white"/>
<path fill-rule="evenodd" clip-rule="evenodd" d="M15.75 22.8125C20.0647 22.8125 23.5625 19.3147 23.5625 15C23.5625 10.6853 20.0647 7.1875 15.75 7.1875C11.4353 7.1875 7.9375 10.6853 7.9375 15C7.9375 16.2498 8.23095 17.431 8.7527 18.4785C8.89136 18.7569 8.93751 19.0751 8.85712 19.3755L8.39181 21.1146C8.18981 21.8695 8.88048 22.5602 9.63543 22.3582L11.3745 21.8929C11.6749 21.8125 11.9931 21.8586 12.2715 21.9973C13.319 22.519 14.5002 22.8125 15.75 22.8125ZM12.625 15.9766C12.3014 15.9766 12.0391 16.2389 12.0391 16.5625C12.0391 16.8861 12.3014 17.1484 12.625 17.1484H16.9219C17.2455 17.1484 17.5078 16.8861 17.5078 16.5625C17.5078 16.2389 17.2455 15.9766 16.9219 15.9766H12.625ZM12.0391 13.8281C12.0391 13.5045 12.3014 13.2422 12.625 13.2422H18.875C19.1986 13.2422 19.4609 13.5045 19.4609 13.8281C19.4609 14.1517 19.1986 14.4141 18.875 14.4141H12.625C12.3014 14.4141 12.0391 14.1517 12.0391 13.8281Z" fill="#76829F"/>
</svg>
