<svg width="21" height="20" viewBox="0 0 21 20" fill="none" xmlns="http://www.w3.org/2000/svg">
<path d="M10.75 3C8.57242 3 6.80714 4.7581 6.80714 6.92683V8.97561C6.80714 11.1443 8.57242 12.9024 10.75 12.9024C12.7533 12.9024 14.4076 11.4145 14.6596 9.48781L11.4357 9.4878C11.1517 9.4878 10.9214 9.25849 10.9214 8.97561C10.9214 8.69273 11.1517 8.46341 11.4357 8.46341L14.6929 8.46342V7.43902H11.4357C11.1517 7.43902 10.9214 7.20971 10.9214 6.92683C10.9214 6.64395 11.1517 6.41463 11.4357 6.41463H14.6596C14.4076 4.48792 12.7533 3 10.75 3Z" fill="white"/>
<path fill-rule="evenodd" clip-rule="evenodd" d="M5.26429 7.78049C5.54832 7.78049 5.77857 8.00981 5.77857 8.29268V8.97561C5.77857 11.7101 8.00436 13.9268 10.75 13.9268C13.4956 13.9268 15.7214 11.7101 15.7214 8.97561V8.29268C15.7214 8.00981 15.9517 7.78049 16.2357 7.78049C16.5197 7.78049 16.75 8.00981 16.75 8.29268V8.97561C16.75 12.1033 14.3372 14.6698 11.2643 14.9296V16.4878C11.2643 16.7707 11.034 17 10.75 17C10.466 17 10.2357 16.7707 10.2357 16.4878V14.9296C7.16275 14.6698 4.75 12.1033 4.75 8.97561V8.29268C4.75 8.00981 4.98025 7.78049 5.26429 7.78049Z" fill="white"/>
</svg>
