<svg width="276" height="115" viewBox="0 0 276 115" fill="none" xmlns="http://www.w3.org/2000/svg">
<circle cx="137.5" cy="24" r="24" fill="url(#paint0_linear_1_1395)"/>
<path d="M142.805 33.8353C142.368 34.9439 140.799 34.9439 140.361 33.8353L139.007 30.3999C138.873 30.0614 138.605 29.7935 138.267 29.66L134.831 28.3051C133.723 27.8679 133.723 26.2989 134.831 25.8617L138.267 24.5068C138.605 24.3733 138.873 24.1054 139.007 23.767L140.361 20.3315C140.799 19.2229 142.368 19.2229 142.805 20.3315L144.16 23.767C144.293 24.1054 144.561 24.3733 144.9 24.5068L148.335 25.8617C149.444 26.299 149.444 27.8679 148.335 28.3051L144.9 29.66C144.561 29.7935 144.293 30.0614 144.16 30.3999L142.805 33.8353Z" fill="white"/>
<path d="M131.755 21.3763C131.515 21.9856 130.652 21.9856 130.412 21.3763L129.361 18.712C129.288 18.526 129.141 18.3788 128.955 18.3054L126.29 17.2546C125.681 17.0144 125.681 16.1521 126.29 15.9119L128.955 14.8611C129.141 14.7877 129.288 14.6405 129.361 14.4545L130.412 11.7902C130.652 11.1809 131.515 11.1809 131.755 11.7902L132.806 14.4545C132.879 14.6405 133.026 14.7877 133.212 14.8611L135.877 15.9119C136.486 16.1521 136.486 17.0144 135.877 17.2546L133.212 18.3054C133.026 18.3788 132.879 18.526 132.806 18.712L131.755 21.3763Z" fill="white"/>
<path d="M129.73 35.1736C129.558 35.6088 128.942 35.6088 128.77 35.1736L128.02 33.2705C127.967 33.1377 127.862 33.0325 127.729 32.9801L125.826 32.2296C125.391 32.0579 125.391 31.4421 125.826 31.2704L127.729 30.5199C127.862 30.4675 127.967 30.3623 128.02 30.2295L128.77 28.3264C128.942 27.8912 129.558 27.8912 129.73 28.3264L130.48 30.2295C130.533 30.3623 130.638 30.4675 130.771 30.5199L132.674 31.2704C133.109 31.4421 133.109 32.0579 132.674 32.2296L130.771 32.9801C130.638 33.0325 130.533 33.1377 130.48 33.2705L129.73 35.1736Z" fill="white"/>
<path d="M96.1791 71.632L94.7711 67.784C94.7017 67.6133 94.6297 67.4107 94.5551 67.176C94.4804 66.9413 94.4057 66.688 94.3311 66.416C94.2617 66.688 94.1897 66.944 94.1151 67.184C94.0404 67.4187 93.9684 67.624 93.8991 67.8L92.4991 71.632H96.1791ZM99.9791 76H98.3151C98.1284 76 97.9764 75.9547 97.8591 75.864C97.7417 75.768 97.6537 75.6507 97.5951 75.512L96.7311 73.152H91.9391L91.0751 75.512C91.0324 75.6347 90.9497 75.7467 90.8271 75.848C90.7044 75.9493 90.5524 76 90.3711 76H88.6911L93.2431 64.432H95.4351L99.9791 76ZM106.192 69.392C106.139 69.4773 106.083 69.5387 106.024 69.576C105.966 69.608 105.891 69.624 105.8 69.624C105.704 69.624 105.6 69.5973 105.488 69.544C105.382 69.4907 105.256 69.432 105.112 69.368C104.968 69.2987 104.803 69.2373 104.616 69.184C104.435 69.1307 104.219 69.104 103.968 69.104C103.579 69.104 103.272 69.1867 103.048 69.352C102.83 69.5173 102.72 69.7333 102.72 70C102.72 70.176 102.776 70.3253 102.888 70.448C103.006 70.5653 103.158 70.6693 103.344 70.76C103.536 70.8507 103.752 70.9333 103.992 71.008C104.232 71.0773 104.475 71.1547 104.72 71.24C104.971 71.3253 105.216 71.424 105.456 71.536C105.696 71.6427 105.91 71.7813 106.096 71.952C106.288 72.1173 106.44 72.3173 106.552 72.552C106.67 72.7867 106.728 73.0693 106.728 73.4C106.728 73.7947 106.656 74.16 106.512 74.496C106.374 74.8267 106.166 75.1147 105.888 75.36C105.611 75.6 105.267 75.7893 104.856 75.928C104.451 76.0613 103.982 76.128 103.448 76.128C103.166 76.128 102.888 76.1013 102.616 76.048C102.35 76 102.091 75.9307 101.84 75.84C101.595 75.7493 101.366 75.6427 101.152 75.52C100.944 75.3973 100.76 75.264 100.6 75.12L101.056 74.368C101.115 74.2773 101.184 74.208 101.264 74.16C101.344 74.112 101.446 74.088 101.568 74.088C101.691 74.088 101.806 74.1227 101.912 74.192C102.024 74.2613 102.152 74.336 102.296 74.416C102.44 74.496 102.608 74.5707 102.8 74.64C102.998 74.7093 103.246 74.744 103.544 74.744C103.779 74.744 103.979 74.7173 104.144 74.664C104.315 74.6053 104.454 74.5307 104.56 74.44C104.672 74.3493 104.752 74.2453 104.8 74.128C104.854 74.0053 104.88 73.88 104.88 73.752C104.88 73.56 104.822 73.4027 104.704 73.28C104.592 73.1573 104.44 73.0507 104.248 72.96C104.062 72.8693 103.846 72.7893 103.6 72.72C103.36 72.6453 103.112 72.5653 102.856 72.48C102.606 72.3947 102.358 72.296 102.112 72.184C101.872 72.0667 101.656 71.92 101.464 71.744C101.278 71.568 101.126 71.352 101.008 71.096C100.896 70.84 100.84 70.5307 100.84 70.168C100.84 69.832 100.907 69.512 101.04 69.208C101.174 68.904 101.368 68.64 101.624 68.416C101.886 68.1867 102.208 68.0053 102.592 67.872C102.982 67.7333 103.43 67.664 103.936 67.664C104.502 67.664 105.016 67.7573 105.48 67.944C105.944 68.1307 106.331 68.376 106.64 68.68L106.192 69.392ZM110.512 64.112V70.92H110.88C111.013 70.92 111.117 70.904 111.192 70.872C111.272 70.8347 111.352 70.7627 111.432 70.656L113.472 68.136C113.557 68.024 113.65 67.9387 113.752 67.88C113.858 67.8213 113.994 67.792 114.16 67.792H115.968L113.416 70.84C113.234 71.08 113.037 71.264 112.824 71.392C112.936 71.472 113.034 71.5653 113.12 71.672C113.21 71.7787 113.296 71.8933 113.376 72.016L116.112 76H114.328C114.173 76 114.04 75.976 113.928 75.928C113.816 75.8747 113.722 75.7813 113.648 75.648L111.552 72.536C111.477 72.4133 111.4 72.3333 111.32 72.296C111.24 72.2587 111.12 72.24 110.96 72.24H110.512V76H108.536V64.112H110.512ZM127.506 71.632L126.098 67.784C126.029 67.6133 125.957 67.4107 125.882 67.176C125.807 66.9413 125.733 66.688 125.658 66.416C125.589 66.688 125.517 66.944 125.442 67.184C125.367 67.4187 125.295 67.624 125.226 67.8L123.826 71.632H127.506ZM131.306 76H129.642C129.455 76 129.303 75.9547 129.186 75.864C129.069 75.768 128.981 75.6507 128.922 75.512L128.058 73.152H123.266L122.402 75.512C122.359 75.6347 122.277 75.7467 122.154 75.848C122.031 75.9493 121.879 76 121.698 76H120.018L124.57 64.432H126.762L131.306 76ZM134.344 68.8C134.509 68.6347 134.682 68.4827 134.864 68.344C135.05 68.2 135.245 68.08 135.448 67.984C135.656 67.8827 135.877 67.8053 136.112 67.752C136.346 67.6933 136.602 67.664 136.88 67.664C137.328 67.664 137.725 67.7413 138.072 67.896C138.418 68.0453 138.706 68.2587 138.936 68.536C139.17 68.808 139.346 69.136 139.464 69.52C139.586 69.8987 139.648 70.3173 139.648 70.776V76H137.672V70.776C137.672 70.2747 137.557 69.888 137.328 69.616C137.098 69.3387 136.749 69.2 136.28 69.2C135.938 69.2 135.618 69.2773 135.32 69.432C135.021 69.5867 134.738 69.7973 134.472 70.064V76H132.496V67.792H133.704C133.96 67.792 134.128 67.912 134.208 68.152L134.344 68.8ZM149.084 67.792L144.612 78.256C144.554 78.3947 144.476 78.4987 144.38 78.568C144.29 78.6427 144.148 78.68 143.956 78.68H142.484L144.02 75.384L140.7 67.792H142.436C142.591 67.792 142.711 67.8293 142.796 67.904C142.887 67.9787 142.954 68.064 142.996 68.16L144.74 72.416C144.799 72.56 144.847 72.704 144.884 72.848C144.927 72.992 144.967 73.1387 145.004 73.288C145.052 73.1387 145.1 72.992 145.148 72.848C145.196 72.6987 145.25 72.552 145.308 72.408L146.956 68.16C146.999 68.0533 147.068 67.9653 147.164 67.896C147.266 67.8267 147.378 67.792 147.5 67.792H149.084ZM153.122 76.128C152.407 76.128 151.858 75.928 151.474 75.528C151.095 75.1227 150.906 74.5653 150.906 73.856V69.272H150.066C149.959 69.272 149.868 69.2373 149.794 69.168C149.719 69.0987 149.682 68.9947 149.682 68.856V68.072L151.002 67.856L151.418 65.616C151.444 65.5093 151.495 65.4267 151.57 65.368C151.644 65.3093 151.74 65.28 151.858 65.28H152.882V67.864H155.074V69.272H152.882V73.72C152.882 73.976 152.943 74.176 153.066 74.32C153.194 74.464 153.367 74.536 153.586 74.536C153.708 74.536 153.81 74.5227 153.89 74.496C153.975 74.464 154.047 74.432 154.106 74.4C154.17 74.368 154.226 74.3387 154.274 74.312C154.322 74.28 154.37 74.264 154.418 74.264C154.476 74.264 154.524 74.28 154.562 74.312C154.599 74.3387 154.639 74.3813 154.682 74.44L155.274 75.4C154.986 75.64 154.655 75.8213 154.282 75.944C153.908 76.0667 153.522 76.128 153.122 76.128ZM158.635 68.672C158.955 68.3733 159.307 68.1307 159.691 67.944C160.075 67.7573 160.525 67.664 161.043 67.664C161.491 67.664 161.888 67.7413 162.235 67.896C162.581 68.0453 162.869 68.2587 163.099 68.536C163.333 68.808 163.509 69.136 163.627 69.52C163.749 69.8987 163.811 70.3173 163.811 70.776V76H161.835V70.776C161.835 70.2747 161.72 69.888 161.491 69.616C161.261 69.3387 160.912 69.2 160.443 69.2C160.101 69.2 159.781 69.2773 159.483 69.432C159.184 69.5867 158.901 69.7973 158.635 70.064V76H156.659V64.112H158.635V68.672ZM168.058 67.792V76H166.074V67.792H168.058ZM168.33 65.4C168.33 65.5707 168.295 65.7307 168.226 65.88C168.157 66.0293 168.063 66.16 167.946 66.272C167.834 66.384 167.701 66.4747 167.546 66.544C167.391 66.608 167.226 66.64 167.05 66.64C166.879 66.64 166.717 66.608 166.562 66.544C166.413 66.4747 166.282 66.384 166.17 66.272C166.058 66.16 165.967 66.0293 165.898 65.88C165.834 65.7307 165.802 65.5707 165.802 65.4C165.802 65.224 165.834 65.0587 165.898 64.904C165.967 64.7493 166.058 64.616 166.17 64.504C166.282 64.392 166.413 64.304 166.562 64.24C166.717 64.1707 166.879 64.136 167.05 64.136C167.226 64.136 167.391 64.1707 167.546 64.24C167.701 64.304 167.834 64.392 167.946 64.504C168.063 64.616 168.157 64.7493 168.226 64.904C168.295 65.0587 168.33 65.224 168.33 65.4ZM172.241 68.8C172.406 68.6347 172.579 68.4827 172.761 68.344C172.947 68.2 173.142 68.08 173.345 67.984C173.553 67.8827 173.774 67.8053 174.009 67.752C174.243 67.6933 174.499 67.664 174.777 67.664C175.225 67.664 175.622 67.7413 175.969 67.896C176.315 68.0453 176.603 68.2587 176.833 68.536C177.067 68.808 177.243 69.136 177.361 69.52C177.483 69.8987 177.545 70.3173 177.545 70.776V76H175.569V70.776C175.569 70.2747 175.454 69.888 175.225 69.616C174.995 69.3387 174.646 69.2 174.177 69.2C173.835 69.2 173.515 69.2773 173.217 69.432C172.918 69.5867 172.635 69.7973 172.369 70.064V76H170.393V67.792H171.601C171.857 67.792 172.025 67.912 172.105 68.152L172.241 68.8ZM182.744 71.696C182.989 71.696 183.202 71.664 183.384 71.6C183.565 71.5307 183.714 71.4373 183.832 71.32C183.954 71.2027 184.045 71.0613 184.104 70.896C184.168 70.7307 184.2 70.5493 184.2 70.352C184.2 69.9467 184.077 69.6267 183.832 69.392C183.592 69.152 183.229 69.032 182.744 69.032C182.258 69.032 181.893 69.152 181.648 69.392C181.408 69.6267 181.288 69.9467 181.288 70.352C181.288 70.544 181.317 70.7227 181.376 70.888C181.44 71.0533 181.53 71.1973 181.648 71.32C181.77 71.4373 181.922 71.5307 182.104 71.6C182.29 71.664 182.504 71.696 182.744 71.696ZM184.976 76.368C184.976 76.208 184.928 76.0773 184.832 75.976C184.736 75.8747 184.605 75.7973 184.44 75.744C184.274 75.6853 184.08 75.6427 183.856 75.616C183.637 75.5893 183.402 75.5707 183.152 75.56C182.906 75.544 182.65 75.5307 182.384 75.52C182.122 75.5093 181.866 75.488 181.616 75.456C181.397 75.5787 181.218 75.7227 181.08 75.888C180.946 76.0533 180.88 76.2453 180.88 76.464C180.88 76.608 180.914 76.7413 180.984 76.864C181.058 76.992 181.173 77.1013 181.328 77.192C181.488 77.2827 181.693 77.352 181.944 77.4C182.194 77.4533 182.501 77.48 182.864 77.48C183.232 77.48 183.549 77.4507 183.816 77.392C184.082 77.3387 184.301 77.2613 184.472 77.16C184.648 77.064 184.776 76.9467 184.856 76.808C184.936 76.6747 184.976 76.528 184.976 76.368ZM186.944 68.072V68.808C186.944 69.0427 186.802 69.1867 186.52 69.24L185.784 69.376C185.896 69.6587 185.952 69.968 185.952 70.304C185.952 70.7093 185.869 71.0773 185.704 71.408C185.544 71.7333 185.32 72.0107 185.032 72.24C184.744 72.4693 184.402 72.648 184.008 72.776C183.618 72.8987 183.197 72.96 182.744 72.96C182.584 72.96 182.429 72.952 182.28 72.936C182.13 72.92 181.984 72.8987 181.84 72.872C181.584 73.0267 181.456 73.2 181.456 73.392C181.456 73.5573 181.53 73.68 181.68 73.76C181.834 73.8347 182.037 73.888 182.288 73.92C182.538 73.952 182.824 73.9733 183.144 73.984C183.464 73.9893 183.792 74.0053 184.128 74.032C184.464 74.0587 184.792 74.1067 185.112 74.176C185.432 74.24 185.717 74.344 185.968 74.488C186.218 74.632 186.418 74.8293 186.568 75.08C186.722 75.3253 186.8 75.6427 186.8 76.032C186.8 76.3947 186.709 76.7467 186.528 77.088C186.352 77.4293 186.093 77.7333 185.752 78C185.416 78.2667 185 78.48 184.504 78.64C184.013 78.8053 183.453 78.888 182.824 78.888C182.205 78.888 181.666 78.8267 181.208 78.704C180.749 78.5867 180.368 78.4267 180.064 78.224C179.76 78.0267 179.533 77.7973 179.384 77.536C179.234 77.2747 179.16 77.0027 179.16 76.72C179.16 76.336 179.274 76.016 179.504 75.76C179.738 75.4987 180.058 75.2907 180.464 75.136C180.245 75.024 180.072 74.8747 179.944 74.688C179.816 74.5013 179.752 74.256 179.752 73.952C179.752 73.8293 179.773 73.704 179.816 73.576C179.864 73.4427 179.93 73.312 180.016 73.184C180.106 73.056 180.218 72.936 180.352 72.824C180.485 72.7067 180.642 72.6027 180.824 72.512C180.408 72.288 180.08 71.9893 179.84 71.616C179.605 71.2427 179.488 70.8053 179.488 70.304C179.488 69.8987 179.568 69.5333 179.728 69.208C179.893 68.8773 180.12 68.5973 180.408 68.368C180.701 68.1333 181.045 67.9547 181.44 67.832C181.84 67.7093 182.274 67.648 182.744 67.648C183.096 67.648 183.426 67.6853 183.736 67.76C184.045 67.8293 184.328 67.9333 184.584 68.072H186.944Z" fill="#1A1C29"/>
<path opacity="0.7" d="M3.71855 89.826C4.16255 89.826 4.56255 89.9 4.91855 90.048C5.27455 90.196 5.57855 90.406 5.83055 90.678C6.08255 90.95 6.27455 91.28 6.40655 91.668C6.54255 92.052 6.61055 92.482 6.61055 92.958C6.61055 93.438 6.54255 93.87 6.40655 94.254C6.27455 94.638 6.08255 94.966 5.83055 95.238C5.57855 95.51 5.27455 95.72 4.91855 95.868C4.56255 96.012 4.16255 96.084 3.71855 96.084C3.27055 96.084 2.86655 96.012 2.50655 95.868C2.15055 95.72 1.84655 95.51 1.59455 95.238C1.34255 94.966 1.14855 94.638 1.01255 94.254C0.880547 93.87 0.814547 93.438 0.814547 92.958C0.814547 92.482 0.880547 92.052 1.01255 91.668C1.14855 91.28 1.34255 90.95 1.59455 90.678C1.84655 90.406 2.15055 90.196 2.50655 90.048C2.86655 89.9 3.27055 89.826 3.71855 89.826ZM3.71855 95.25C4.31855 95.25 4.76655 95.05 5.06255 94.65C5.35855 94.246 5.50655 93.684 5.50655 92.964C5.50655 92.24 5.35855 91.676 5.06255 91.272C4.76655 90.868 4.31855 90.666 3.71855 90.666C3.41455 90.666 3.14855 90.718 2.92055 90.822C2.69655 90.926 2.50855 91.076 2.35655 91.272C2.20855 91.468 2.09655 91.71 2.02055 91.998C1.94855 92.282 1.91255 92.604 1.91255 92.964C1.91255 93.684 2.06055 94.246 2.35655 94.65C2.65655 95.05 3.11055 95.25 3.71855 95.25ZM12.9631 89.922V96H12.3271C12.1751 96 12.0791 95.926 12.0391 95.778L11.9551 95.124C11.6911 95.416 11.3951 95.652 11.0671 95.832C10.7391 96.008 10.3631 96.096 9.93914 96.096C9.60714 96.096 9.31314 96.042 9.05714 95.934C8.80514 95.822 8.59314 95.666 8.42114 95.466C8.24914 95.266 8.11914 95.024 8.03114 94.74C7.94714 94.456 7.90514 94.142 7.90514 93.798V89.922H8.97314V93.798C8.97314 94.258 9.07714 94.614 9.28514 94.866C9.49714 95.118 9.81914 95.244 10.2511 95.244C10.5671 95.244 10.8611 95.17 11.1331 95.022C11.4091 94.87 11.6631 94.662 11.8951 94.398V89.922H12.9631ZM15.6705 91.14C15.8625 90.724 16.0985 90.4 16.3785 90.168C16.6585 89.932 17.0005 89.814 17.4045 89.814C17.5325 89.814 17.6545 89.828 17.7705 89.856C17.8905 89.884 17.9965 89.928 18.0885 89.988L18.0105 90.786C17.9865 90.886 17.9265 90.936 17.8305 90.936C17.7745 90.936 17.6925 90.924 17.5845 90.9C17.4765 90.876 17.3545 90.864 17.2185 90.864C17.0265 90.864 16.8545 90.892 16.7025 90.948C16.5545 91.004 16.4205 91.088 16.3005 91.2C16.1845 91.308 16.0785 91.444 15.9825 91.608C15.8905 91.768 15.8065 91.952 15.7305 92.16V96H14.6565V89.922H15.2685C15.3845 89.922 15.4645 89.944 15.5085 89.988C15.5525 90.032 15.5825 90.108 15.5985 90.216L15.6705 91.14ZM22.9141 94.536C23.1101 94.8 23.3241 94.986 23.5561 95.094C23.7881 95.202 24.0481 95.256 24.3361 95.256C24.9041 95.256 25.3401 95.054 25.6441 94.65C25.9481 94.246 26.1001 93.67 26.1001 92.922C26.1001 92.526 26.0641 92.186 25.9921 91.902C25.9241 91.618 25.8241 91.386 25.6921 91.206C25.5601 91.022 25.3981 90.888 25.2061 90.804C25.0141 90.72 24.7961 90.678 24.5521 90.678C24.2041 90.678 23.8981 90.758 23.6341 90.918C23.3741 91.078 23.1341 91.304 22.9141 91.596V94.536ZM22.8601 90.864C23.1161 90.548 23.4121 90.294 23.7481 90.102C24.0841 89.91 24.4681 89.814 24.9001 89.814C25.2521 89.814 25.5701 89.882 25.8541 90.018C26.1381 90.15 26.3801 90.348 26.5801 90.612C26.7801 90.872 26.9341 91.196 27.0421 91.584C27.1501 91.972 27.2041 92.418 27.2041 92.922C27.2041 93.37 27.1441 93.788 27.0241 94.176C26.9041 94.56 26.7301 94.894 26.5021 95.178C26.2781 95.458 26.0021 95.68 25.6741 95.844C25.3501 96.004 24.9841 96.084 24.5761 96.084C24.2041 96.084 23.8841 96.022 23.6161 95.898C23.3521 95.77 23.1181 95.594 22.9141 95.37V98.058H21.8401V89.922H22.4821C22.6341 89.922 22.7281 89.996 22.7641 90.144L22.8601 90.864ZM29.5807 91.14C29.7727 90.724 30.0087 90.4 30.2887 90.168C30.5687 89.932 30.9107 89.814 31.3147 89.814C31.4427 89.814 31.5647 89.828 31.6807 89.856C31.8007 89.884 31.9067 89.928 31.9987 89.988L31.9207 90.786C31.8967 90.886 31.8367 90.936 31.7407 90.936C31.6847 90.936 31.6027 90.924 31.4947 90.9C31.3867 90.876 31.2647 90.864 31.1287 90.864C30.9367 90.864 30.7647 90.892 30.6127 90.948C30.4647 91.004 30.3307 91.088 30.2107 91.2C30.0947 91.308 29.9887 91.444 29.8927 91.608C29.8007 91.768 29.7167 91.952 29.6407 92.16V96H28.5667V89.922H29.1787C29.2947 89.922 29.3747 89.944 29.4187 89.988C29.4627 90.032 29.4927 90.108 29.5087 90.216L29.5807 91.14ZM36.7597 92.298C36.7597 92.05 36.7237 91.824 36.6517 91.62C36.5837 91.412 36.4817 91.234 36.3457 91.086C36.2137 90.934 36.0517 90.818 35.8597 90.738C35.6677 90.654 35.4497 90.612 35.2057 90.612C34.6937 90.612 34.2877 90.762 33.9877 91.062C33.6917 91.358 33.5077 91.77 33.4357 92.298H36.7597ZM37.6237 95.148C37.4917 95.308 37.3337 95.448 37.1497 95.568C36.9657 95.684 36.7677 95.78 36.5557 95.856C36.3477 95.932 36.1317 95.988 35.9077 96.024C35.6837 96.064 35.4617 96.084 35.2417 96.084C34.8217 96.084 34.4337 96.014 34.0777 95.874C33.7257 95.73 33.4197 95.522 33.1597 95.25C32.9037 94.974 32.7037 94.634 32.5597 94.23C32.4157 93.826 32.3437 93.362 32.3437 92.838C32.3437 92.414 32.4077 92.018 32.5357 91.65C32.6677 91.282 32.8557 90.964 33.0997 90.696C33.3437 90.424 33.6417 90.212 33.9937 90.06C34.3457 89.904 34.7417 89.826 35.1817 89.826C35.5457 89.826 35.8817 89.888 36.1897 90.012C36.5017 90.132 36.7697 90.308 36.9937 90.54C37.2217 90.768 37.3997 91.052 37.5277 91.392C37.6557 91.728 37.7197 92.112 37.7197 92.544C37.7197 92.712 37.7017 92.824 37.6657 92.88C37.6297 92.936 37.5617 92.964 37.4617 92.964H33.3997C33.4117 93.348 33.4637 93.682 33.5557 93.966C33.6517 94.25 33.7837 94.488 33.9517 94.68C34.1197 94.868 34.3197 95.01 34.5517 95.106C34.7837 95.198 35.0437 95.244 35.3317 95.244C35.5997 95.244 35.8297 95.214 36.0217 95.154C36.2177 95.09 36.3857 95.022 36.5257 94.95C36.6657 94.878 36.7817 94.812 36.8737 94.752C36.9697 94.688 37.0517 94.656 37.1197 94.656C37.2077 94.656 37.2757 94.69 37.3237 94.758L37.6237 95.148ZM42.5715 90.924C42.5235 91.012 42.4495 91.056 42.3495 91.056C42.2895 91.056 42.2215 91.034 42.1455 90.99C42.0695 90.946 41.9755 90.898 41.8635 90.846C41.7555 90.79 41.6255 90.74 41.4735 90.696C41.3215 90.648 41.1415 90.624 40.9335 90.624C40.7535 90.624 40.5915 90.648 40.4475 90.696C40.3035 90.74 40.1795 90.802 40.0755 90.882C39.9755 90.962 39.8975 91.056 39.8415 91.164C39.7895 91.268 39.7635 91.382 39.7635 91.506C39.7635 91.662 39.8075 91.792 39.8955 91.896C39.9875 92 40.1075 92.09 40.2555 92.166C40.4035 92.242 40.5715 92.31 40.7595 92.37C40.9475 92.426 41.1395 92.488 41.3355 92.556C41.5355 92.62 41.7295 92.692 41.9175 92.772C42.1055 92.852 42.2735 92.952 42.4215 93.072C42.5695 93.192 42.6875 93.34 42.7755 93.516C42.8675 93.688 42.9135 93.896 42.9135 94.14C42.9135 94.42 42.8635 94.68 42.7635 94.92C42.6635 95.156 42.5155 95.362 42.3195 95.538C42.1235 95.71 41.8835 95.846 41.5995 95.946C41.3155 96.046 40.9875 96.096 40.6155 96.096C40.1915 96.096 39.8075 96.028 39.4635 95.892C39.1195 95.752 38.8275 95.574 38.5875 95.358L38.8395 94.95C38.8715 94.898 38.9095 94.858 38.9535 94.83C38.9975 94.802 39.0535 94.788 39.1215 94.788C39.1935 94.788 39.2695 94.816 39.3495 94.872C39.4295 94.928 39.5255 94.99 39.6375 95.058C39.7535 95.126 39.8935 95.188 40.0575 95.244C40.2215 95.3 40.4255 95.328 40.6695 95.328C40.8775 95.328 41.0595 95.302 41.2155 95.25C41.3715 95.194 41.5015 95.12 41.6055 95.028C41.7095 94.936 41.7855 94.83 41.8335 94.71C41.8855 94.59 41.9115 94.462 41.9115 94.326C41.9115 94.158 41.8655 94.02 41.7735 93.912C41.6855 93.8 41.5675 93.706 41.4195 93.63C41.2715 93.55 41.1015 93.482 40.9095 93.426C40.7215 93.366 40.5275 93.304 40.3275 93.24C40.1315 93.176 39.9375 93.104 39.7455 93.024C39.5575 92.94 39.3895 92.836 39.2415 92.712C39.0935 92.588 38.9735 92.436 38.8815 92.256C38.7935 92.072 38.7495 91.85 38.7495 91.59C38.7495 91.358 38.7975 91.136 38.8935 90.924C38.9895 90.708 39.1295 90.52 39.3135 90.36C39.4975 90.196 39.7235 90.066 39.9915 89.97C40.2595 89.874 40.5655 89.826 40.9095 89.826C41.3095 89.826 41.6675 89.89 41.9835 90.018C42.3035 90.142 42.5795 90.314 42.8115 90.534L42.5715 90.924ZM48.291 92.298C48.291 92.05 48.255 91.824 48.183 91.62C48.115 91.412 48.013 91.234 47.877 91.086C47.745 90.934 47.583 90.818 47.391 90.738C47.199 90.654 46.981 90.612 46.737 90.612C46.225 90.612 45.819 90.762 45.519 91.062C45.223 91.358 45.039 91.77 44.967 92.298H48.291ZM49.155 95.148C49.023 95.308 48.865 95.448 48.681 95.568C48.497 95.684 48.299 95.78 48.087 95.856C47.879 95.932 47.663 95.988 47.439 96.024C47.215 96.064 46.993 96.084 46.773 96.084C46.353 96.084 45.965 96.014 45.609 95.874C45.257 95.73 44.951 95.522 44.691 95.25C44.435 94.974 44.235 94.634 44.091 94.23C43.947 93.826 43.875 93.362 43.875 92.838C43.875 92.414 43.939 92.018 44.067 91.65C44.199 91.282 44.387 90.964 44.631 90.696C44.875 90.424 45.173 90.212 45.525 90.06C45.877 89.904 46.273 89.826 46.713 89.826C47.077 89.826 47.413 89.888 47.721 90.012C48.033 90.132 48.301 90.308 48.525 90.54C48.753 90.768 48.931 91.052 49.059 91.392C49.187 91.728 49.251 92.112 49.251 92.544C49.251 92.712 49.233 92.824 49.197 92.88C49.161 92.936 49.093 92.964 48.993 92.964H44.931C44.943 93.348 44.995 93.682 45.087 93.966C45.183 94.25 45.315 94.488 45.483 94.68C45.651 94.868 45.851 95.01 46.083 95.106C46.315 95.198 46.575 95.244 46.863 95.244C47.131 95.244 47.361 95.214 47.553 95.154C47.749 95.09 47.917 95.022 48.057 94.95C48.197 94.878 48.313 94.812 48.405 94.752C48.501 94.688 48.583 94.656 48.651 94.656C48.739 94.656 48.807 94.69 48.855 94.758L49.155 95.148ZM51.5708 90.804C51.7028 90.656 51.8428 90.522 51.9908 90.402C52.1388 90.282 52.2948 90.18 52.4588 90.096C52.6268 90.008 52.8028 89.942 52.9868 89.898C53.1748 89.85 53.3768 89.826 53.5928 89.826C53.9248 89.826 54.2168 89.882 54.4688 89.994C54.7248 90.102 54.9368 90.258 55.1048 90.462C55.2768 90.662 55.4068 90.904 55.4948 91.188C55.5828 91.472 55.6268 91.786 55.6268 92.13V96H54.5528V92.13C54.5528 91.67 54.4468 91.314 54.2348 91.062C54.0268 90.806 53.7088 90.678 53.2808 90.678C52.9648 90.678 52.6688 90.754 52.3928 90.906C52.1208 91.058 51.8688 91.264 51.6368 91.524V96H50.5628V89.922H51.2048C51.3568 89.922 51.4508 89.996 51.4868 90.144L51.5708 90.804ZM59.0382 96.096C58.5582 96.096 58.1882 95.962 57.9282 95.694C57.6722 95.426 57.5442 95.04 57.5442 94.536V90.816H56.8122C56.7482 90.816 56.6942 90.798 56.6502 90.762C56.6062 90.722 56.5842 90.662 56.5842 90.582V90.156L57.5802 90.03L57.8262 88.152C57.8382 88.092 57.8642 88.044 57.9042 88.008C57.9482 87.968 58.0042 87.948 58.0722 87.948H58.6122V90.042H60.3702V90.816H58.6122V94.464C58.6122 94.72 58.6742 94.91 58.7982 95.034C58.9222 95.158 59.0822 95.22 59.2782 95.22C59.3902 95.22 59.4862 95.206 59.5662 95.178C59.6502 95.146 59.7222 95.112 59.7822 95.076C59.8422 95.04 59.8922 95.008 59.9322 94.98C59.9762 94.948 60.0142 94.932 60.0462 94.932C60.1022 94.932 60.1522 94.966 60.1962 95.034L60.5082 95.544C60.3242 95.716 60.1022 95.852 59.8422 95.952C59.5822 96.048 59.3142 96.096 59.0382 96.096ZM64.767 93.264C64.275 93.28 63.855 93.32 63.507 93.384C63.163 93.444 62.881 93.524 62.661 93.624C62.445 93.724 62.287 93.842 62.187 93.978C62.091 94.114 62.043 94.266 62.043 94.434C62.043 94.594 62.069 94.732 62.121 94.848C62.173 94.964 62.243 95.06 62.331 95.136C62.423 95.208 62.529 95.262 62.649 95.298C62.773 95.33 62.905 95.346 63.045 95.346C63.233 95.346 63.405 95.328 63.561 95.292C63.717 95.252 63.863 95.196 63.999 95.124C64.139 95.052 64.271 94.966 64.395 94.866C64.523 94.766 64.647 94.652 64.767 94.524V93.264ZM61.317 90.78C61.653 90.456 62.015 90.214 62.403 90.054C62.791 89.894 63.221 89.814 63.693 89.814C64.033 89.814 64.335 89.87 64.599 89.982C64.863 90.094 65.085 90.25 65.265 90.45C65.445 90.65 65.581 90.892 65.673 91.176C65.765 91.46 65.811 91.772 65.811 92.112V96H65.337C65.233 96 65.153 95.984 65.097 95.952C65.041 95.916 64.997 95.848 64.965 95.748L64.845 95.172C64.685 95.32 64.529 95.452 64.377 95.568C64.225 95.68 64.065 95.776 63.897 95.856C63.729 95.932 63.549 95.99 63.357 96.03C63.169 96.074 62.959 96.096 62.727 96.096C62.491 96.096 62.269 96.064 62.061 96C61.853 95.932 61.671 95.832 61.515 95.7C61.363 95.568 61.241 95.402 61.149 95.202C61.061 94.998 61.017 94.758 61.017 94.482C61.017 94.242 61.083 94.012 61.215 93.792C61.347 93.568 61.561 93.37 61.857 93.198C62.153 93.026 62.539 92.886 63.015 92.778C63.491 92.666 64.075 92.602 64.767 92.586V92.112C64.767 91.64 64.665 91.284 64.461 91.044C64.257 90.8 63.959 90.678 63.567 90.678C63.303 90.678 63.081 90.712 62.901 90.78C62.725 90.844 62.571 90.918 62.439 91.002C62.311 91.082 62.199 91.156 62.103 91.224C62.011 91.288 61.919 91.32 61.827 91.32C61.755 91.32 61.693 91.302 61.641 91.266C61.589 91.226 61.545 91.178 61.509 91.122L61.317 90.78ZM72.9958 96H71.9278V90.816H68.7958V94.464C68.7958 94.72 68.8578 94.91 68.9818 95.034C69.1058 95.158 69.2658 95.22 69.4618 95.22C69.5738 95.22 69.6698 95.206 69.7498 95.178C69.8338 95.146 69.9058 95.112 69.9658 95.076C70.0258 95.04 70.0758 95.008 70.1158 94.98C70.1598 94.948 70.1978 94.932 70.2298 94.932C70.2858 94.932 70.3358 94.966 70.3798 95.034L70.6918 95.544C70.5078 95.716 70.2858 95.852 70.0258 95.952C69.7658 96.048 69.4978 96.096 69.2218 96.096C68.7418 96.096 68.3718 95.962 68.1118 95.694C67.8558 95.426 67.7278 95.04 67.7278 94.536V90.816H66.9958C66.9318 90.816 66.8778 90.798 66.8338 90.762C66.7898 90.722 66.7678 90.662 66.7678 90.582V90.156L67.7638 90.024L68.0098 88.152C68.0218 88.092 68.0478 88.044 68.0878 88.008C68.1318 87.968 68.1878 87.948 68.2558 87.948H68.7958V90.042H72.9958V96ZM73.2598 87.972C73.2598 88.076 73.2378 88.174 73.1938 88.266C73.1538 88.354 73.0978 88.432 73.0258 88.5C72.9578 88.568 72.8778 88.622 72.7858 88.662C72.6938 88.702 72.5958 88.722 72.4918 88.722C72.3878 88.722 72.2898 88.702 72.1978 88.662C72.1098 88.622 72.0318 88.568 71.9638 88.5C71.8958 88.432 71.8418 88.354 71.8018 88.266C71.7618 88.174 71.7418 88.076 71.7418 87.972C71.7418 87.868 71.7618 87.77 71.8018 87.678C71.8418 87.582 71.8958 87.5 71.9638 87.432C72.0318 87.36 72.1098 87.304 72.1978 87.264C72.2898 87.224 72.3878 87.204 72.4918 87.204C72.5958 87.204 72.6938 87.224 72.7858 87.264C72.8778 87.304 72.9578 87.36 73.0258 87.432C73.0978 87.5 73.1538 87.582 73.1938 87.678C73.2378 87.77 73.2598 87.868 73.2598 87.972ZM77.3123 89.826C77.7563 89.826 78.1563 89.9 78.5123 90.048C78.8683 90.196 79.1723 90.406 79.4243 90.678C79.6763 90.95 79.8683 91.28 80.0003 91.668C80.1363 92.052 80.2043 92.482 80.2043 92.958C80.2043 93.438 80.1363 93.87 80.0003 94.254C79.8683 94.638 79.6763 94.966 79.4243 95.238C79.1723 95.51 78.8683 95.72 78.5123 95.868C78.1563 96.012 77.7563 96.084 77.3123 96.084C76.8643 96.084 76.4603 96.012 76.1003 95.868C75.7443 95.72 75.4403 95.51 75.1883 95.238C74.9363 94.966 74.7423 94.638 74.6063 94.254C74.4743 93.87 74.4083 93.438 74.4083 92.958C74.4083 92.482 74.4743 92.052 74.6063 91.668C74.7423 91.28 74.9363 90.95 75.1883 90.678C75.4403 90.406 75.7443 90.196 76.1003 90.048C76.4603 89.9 76.8643 89.826 77.3123 89.826ZM77.3123 95.25C77.9123 95.25 78.3603 95.05 78.6563 94.65C78.9523 94.246 79.1003 93.684 79.1003 92.964C79.1003 92.24 78.9523 91.676 78.6563 91.272C78.3603 90.868 77.9123 90.666 77.3123 90.666C77.0083 90.666 76.7423 90.718 76.5143 90.822C76.2903 90.926 76.1023 91.076 75.9503 91.272C75.8023 91.468 75.6903 91.71 75.6143 91.998C75.5423 92.282 75.5063 92.604 75.5063 92.964C75.5063 93.684 75.6543 94.246 75.9503 94.65C76.2503 95.05 76.7043 95.25 77.3123 95.25ZM82.5669 90.804C82.6989 90.656 82.8389 90.522 82.9869 90.402C83.1349 90.282 83.2909 90.18 83.4549 90.096C83.6229 90.008 83.7989 89.942 83.9829 89.898C84.1709 89.85 84.3729 89.826 84.5889 89.826C84.9209 89.826 85.2129 89.882 85.4649 89.994C85.7209 90.102 85.9329 90.258 86.1009 90.462C86.2729 90.662 86.4029 90.904 86.4909 91.188C86.5789 91.472 86.6229 91.786 86.6229 92.13V96H85.5489V92.13C85.5489 91.67 85.4429 91.314 85.2309 91.062C85.0229 90.806 84.7049 90.678 84.2769 90.678C83.9609 90.678 83.6649 90.754 83.3889 90.906C83.1169 91.058 82.8649 91.264 82.6329 91.524V96H81.5589V89.922H82.2009C82.3529 89.922 82.4469 89.996 82.4829 90.144L82.5669 90.804ZM92.4486 89.922V96H91.3806V89.922H92.4486ZM92.6766 88.014C92.6766 88.118 92.6546 88.216 92.6106 88.308C92.5706 88.396 92.5146 88.476 92.4426 88.548C92.3746 88.616 92.2926 88.67 92.1966 88.71C92.1046 88.75 92.0066 88.77 91.9026 88.77C91.7986 88.77 91.7006 88.75 91.6086 88.71C91.5206 88.67 91.4426 88.616 91.3746 88.548C91.3066 88.476 91.2526 88.396 91.2126 88.308C91.1726 88.216 91.1526 88.118 91.1526 88.014C91.1526 87.91 91.1726 87.812 91.2126 87.72C91.2526 87.624 91.3066 87.542 91.3746 87.474C91.4426 87.402 91.5206 87.346 91.6086 87.306C91.7006 87.266 91.7986 87.246 91.9026 87.246C92.0066 87.246 92.1046 87.266 92.1966 87.306C92.2926 87.346 92.3746 87.402 92.4426 87.474C92.5146 87.542 92.5706 87.624 92.6106 87.72C92.6546 87.812 92.6766 87.91 92.6766 88.014ZM97.7434 90.924C97.6954 91.012 97.6214 91.056 97.5214 91.056C97.4614 91.056 97.3934 91.034 97.3174 90.99C97.2414 90.946 97.1474 90.898 97.0354 90.846C96.9274 90.79 96.7974 90.74 96.6454 90.696C96.4934 90.648 96.3134 90.624 96.1054 90.624C95.9254 90.624 95.7634 90.648 95.6194 90.696C95.4754 90.74 95.3514 90.802 95.2474 90.882C95.1474 90.962 95.0694 91.056 95.0134 91.164C94.9614 91.268 94.9354 91.382 94.9354 91.506C94.9354 91.662 94.9794 91.792 95.0674 91.896C95.1594 92 95.2794 92.09 95.4274 92.166C95.5754 92.242 95.7434 92.31 95.9314 92.37C96.1194 92.426 96.3114 92.488 96.5074 92.556C96.7074 92.62 96.9014 92.692 97.0894 92.772C97.2774 92.852 97.4454 92.952 97.5934 93.072C97.7414 93.192 97.8594 93.34 97.9474 93.516C98.0394 93.688 98.0854 93.896 98.0854 94.14C98.0854 94.42 98.0354 94.68 97.9354 94.92C97.8354 95.156 97.6874 95.362 97.4914 95.538C97.2954 95.71 97.0554 95.846 96.7714 95.946C96.4874 96.046 96.1594 96.096 95.7874 96.096C95.3634 96.096 94.9794 96.028 94.6354 95.892C94.2914 95.752 93.9994 95.574 93.7594 95.358L94.0114 94.95C94.0434 94.898 94.0814 94.858 94.1254 94.83C94.1694 94.802 94.2254 94.788 94.2934 94.788C94.3654 94.788 94.4414 94.816 94.5214 94.872C94.6014 94.928 94.6974 94.99 94.8094 95.058C94.9254 95.126 95.0654 95.188 95.2294 95.244C95.3934 95.3 95.5974 95.328 95.8414 95.328C96.0494 95.328 96.2314 95.302 96.3874 95.25C96.5434 95.194 96.6734 95.12 96.7774 95.028C96.8814 94.936 96.9574 94.83 97.0054 94.71C97.0574 94.59 97.0834 94.462 97.0834 94.326C97.0834 94.158 97.0374 94.02 96.9454 93.912C96.8574 93.8 96.7394 93.706 96.5914 93.63C96.4434 93.55 96.2734 93.482 96.0814 93.426C95.8934 93.366 95.6994 93.304 95.4994 93.24C95.3034 93.176 95.1094 93.104 94.9174 93.024C94.7294 92.94 94.5614 92.836 94.4134 92.712C94.2654 92.588 94.1454 92.436 94.0534 92.256C93.9654 92.072 93.9214 91.85 93.9214 91.59C93.9214 91.358 93.9694 91.136 94.0654 90.924C94.1614 90.708 94.3014 90.52 94.4854 90.36C94.6694 90.196 94.8954 90.066 95.1634 89.97C95.4314 89.874 95.7374 89.826 96.0814 89.826C96.4814 89.826 96.8394 89.89 97.1554 90.018C97.4754 90.142 97.7514 90.314 97.9834 90.534L97.7434 90.924ZM103.479 91.14C103.671 90.724 103.907 90.4 104.187 90.168C104.467 89.932 104.809 89.814 105.213 89.814C105.341 89.814 105.463 89.828 105.579 89.856C105.699 89.884 105.805 89.928 105.897 89.988L105.819 90.786C105.795 90.886 105.735 90.936 105.639 90.936C105.583 90.936 105.501 90.924 105.393 90.9C105.285 90.876 105.163 90.864 105.027 90.864C104.835 90.864 104.663 90.892 104.511 90.948C104.363 91.004 104.229 91.088 104.109 91.2C103.993 91.308 103.887 91.444 103.791 91.608C103.699 91.768 103.615 91.952 103.539 92.16V96H102.465V89.922H103.077C103.193 89.922 103.273 89.944 103.317 89.988C103.361 90.032 103.391 90.108 103.407 90.216L103.479 91.14ZM110.658 92.298C110.658 92.05 110.622 91.824 110.55 91.62C110.482 91.412 110.38 91.234 110.244 91.086C110.112 90.934 109.95 90.818 109.758 90.738C109.566 90.654 109.348 90.612 109.104 90.612C108.592 90.612 108.186 90.762 107.886 91.062C107.59 91.358 107.406 91.77 107.334 92.298H110.658ZM111.522 95.148C111.39 95.308 111.232 95.448 111.048 95.568C110.864 95.684 110.666 95.78 110.454 95.856C110.246 95.932 110.03 95.988 109.806 96.024C109.582 96.064 109.36 96.084 109.14 96.084C108.72 96.084 108.332 96.014 107.976 95.874C107.624 95.73 107.318 95.522 107.058 95.25C106.802 94.974 106.602 94.634 106.458 94.23C106.314 93.826 106.242 93.362 106.242 92.838C106.242 92.414 106.306 92.018 106.434 91.65C106.566 91.282 106.754 90.964 106.998 90.696C107.242 90.424 107.54 90.212 107.892 90.06C108.244 89.904 108.64 89.826 109.08 89.826C109.444 89.826 109.78 89.888 110.088 90.012C110.4 90.132 110.668 90.308 110.892 90.54C111.12 90.768 111.298 91.052 111.426 91.392C111.554 91.728 111.618 92.112 111.618 92.544C111.618 92.712 111.6 92.824 111.564 92.88C111.528 92.936 111.46 92.964 111.36 92.964H107.298C107.31 93.348 107.362 93.682 107.454 93.966C107.55 94.25 107.682 94.488 107.85 94.68C108.018 94.868 108.218 95.01 108.45 95.106C108.682 95.198 108.942 95.244 109.23 95.244C109.498 95.244 109.728 95.214 109.92 95.154C110.116 95.09 110.284 95.022 110.424 94.95C110.564 94.878 110.68 94.812 110.772 94.752C110.868 94.688 110.95 94.656 111.018 94.656C111.106 94.656 111.174 94.69 111.222 94.758L111.522 95.148ZM116.224 93.264C115.732 93.28 115.312 93.32 114.964 93.384C114.62 93.444 114.338 93.524 114.118 93.624C113.902 93.724 113.744 93.842 113.644 93.978C113.548 94.114 113.5 94.266 113.5 94.434C113.5 94.594 113.526 94.732 113.578 94.848C113.63 94.964 113.7 95.06 113.788 95.136C113.88 95.208 113.986 95.262 114.106 95.298C114.23 95.33 114.362 95.346 114.502 95.346C114.69 95.346 114.862 95.328 115.018 95.292C115.174 95.252 115.32 95.196 115.456 95.124C115.596 95.052 115.728 94.966 115.852 94.866C115.98 94.766 116.104 94.652 116.224 94.524V93.264ZM112.774 90.78C113.11 90.456 113.472 90.214 113.86 90.054C114.248 89.894 114.678 89.814 115.15 89.814C115.49 89.814 115.792 89.87 116.056 89.982C116.32 90.094 116.542 90.25 116.722 90.45C116.902 90.65 117.038 90.892 117.13 91.176C117.222 91.46 117.268 91.772 117.268 92.112V96H116.794C116.69 96 116.61 95.984 116.554 95.952C116.498 95.916 116.454 95.848 116.422 95.748L116.302 95.172C116.142 95.32 115.986 95.452 115.834 95.568C115.682 95.68 115.522 95.776 115.354 95.856C115.186 95.932 115.006 95.99 114.814 96.03C114.626 96.074 114.416 96.096 114.184 96.096C113.948 96.096 113.726 96.064 113.518 96C113.31 95.932 113.128 95.832 112.972 95.7C112.82 95.568 112.698 95.402 112.606 95.202C112.518 94.998 112.474 94.758 112.474 94.482C112.474 94.242 112.54 94.012 112.672 93.792C112.804 93.568 113.018 93.37 113.314 93.198C113.61 93.026 113.996 92.886 114.472 92.778C114.948 92.666 115.532 92.602 116.224 92.586V92.112C116.224 91.64 116.122 91.284 115.918 91.044C115.714 90.8 115.416 90.678 115.024 90.678C114.76 90.678 114.538 90.712 114.358 90.78C114.182 90.844 114.028 90.918 113.896 91.002C113.768 91.082 113.656 91.156 113.56 91.224C113.468 91.288 113.376 91.32 113.284 91.32C113.212 91.32 113.15 91.302 113.098 91.266C113.046 91.226 113.002 91.178 112.966 91.122L112.774 90.78ZM122.855 91.368C122.655 91.1 122.439 90.914 122.207 90.81C121.975 90.702 121.715 90.648 121.427 90.648C120.863 90.648 120.429 90.85 120.125 91.254C119.821 91.658 119.669 92.234 119.669 92.982C119.669 93.378 119.703 93.718 119.771 94.002C119.839 94.282 119.939 94.514 120.071 94.698C120.203 94.878 120.365 95.01 120.557 95.094C120.749 95.178 120.967 95.22 121.211 95.22C121.563 95.22 121.869 95.14 122.129 94.98C122.393 94.82 122.635 94.594 122.855 94.302V91.368ZM123.923 87.162V96H123.287C123.135 96 123.039 95.926 122.999 95.778L122.903 95.04C122.643 95.352 122.347 95.604 122.015 95.796C121.683 95.988 121.299 96.084 120.863 96.084C120.515 96.084 120.199 96.018 119.915 95.886C119.631 95.75 119.389 95.552 119.189 95.292C118.989 95.032 118.835 94.708 118.727 94.32C118.619 93.932 118.565 93.486 118.565 92.982C118.565 92.534 118.625 92.118 118.745 91.734C118.865 91.346 119.037 91.01 119.261 90.726C119.485 90.442 119.759 90.22 120.083 90.06C120.411 89.896 120.779 89.814 121.187 89.814C121.559 89.814 121.877 89.878 122.141 90.006C122.409 90.13 122.647 90.304 122.855 90.528V87.162H123.923ZM130.854 89.922L127.464 97.794C127.428 97.874 127.382 97.938 127.326 97.986C127.274 98.034 127.192 98.058 127.08 98.058H126.288L127.398 95.646L124.89 89.922H125.814C125.906 89.922 125.978 89.946 126.03 89.994C126.086 90.038 126.124 90.088 126.144 90.144L127.77 93.972C127.834 94.14 127.888 94.316 127.932 94.5C127.988 94.312 128.048 94.134 128.112 93.966L129.69 90.144C129.714 90.08 129.754 90.028 129.81 89.988C129.87 89.944 129.936 89.922 130.008 89.922H130.854ZM131.195 95.34C131.195 95.236 131.213 95.138 131.249 95.046C131.289 94.954 131.341 94.874 131.405 94.806C131.473 94.738 131.553 94.684 131.645 94.644C131.737 94.604 131.835 94.584 131.939 94.584C132.043 94.584 132.141 94.604 132.233 94.644C132.325 94.684 132.405 94.738 132.473 94.806C132.541 94.874 132.595 94.954 132.635 95.046C132.675 95.138 132.695 95.236 132.695 95.34C132.695 95.448 132.675 95.548 132.635 95.64C132.595 95.728 132.541 95.806 132.473 95.874C132.405 95.942 132.325 95.994 132.233 96.03C132.141 96.07 132.043 96.09 131.939 96.09C131.835 96.09 131.737 96.07 131.645 96.03C131.553 95.994 131.473 95.942 131.405 95.874C131.341 95.806 131.289 95.728 131.249 95.64C131.213 95.548 131.195 95.448 131.195 95.34ZM140.146 93.03C140.146 93.51 140.086 93.94 139.966 94.32C139.85 94.7 139.676 95.022 139.444 95.286C139.216 95.546 138.934 95.746 138.598 95.886C138.262 96.026 137.876 96.096 137.44 96.096C137.044 96.096 136.64 96.04 136.228 95.928C136.236 95.812 136.246 95.698 136.258 95.586C136.27 95.47 136.28 95.356 136.288 95.244C136.296 95.176 136.32 95.122 136.36 95.082C136.404 95.038 136.47 95.016 136.558 95.016C136.63 95.016 136.724 95.034 136.84 95.07C136.96 95.106 137.12 95.124 137.32 95.124C137.584 95.124 137.82 95.084 138.028 95.004C138.236 94.924 138.41 94.8 138.55 94.632C138.69 94.464 138.796 94.25 138.868 93.99C138.944 93.726 138.982 93.414 138.982 93.054V87.402H140.146V93.03ZM146.838 89.922V96H146.202C146.05 96 145.954 95.926 145.914 95.778L145.83 95.124C145.566 95.416 145.27 95.652 144.942 95.832C144.614 96.008 144.238 96.096 143.814 96.096C143.482 96.096 143.188 96.042 142.932 95.934C142.68 95.822 142.468 95.666 142.296 95.466C142.124 95.266 141.994 95.024 141.906 94.74C141.822 94.456 141.78 94.142 141.78 93.798V89.922H142.848V93.798C142.848 94.258 142.952 94.614 143.16 94.866C143.372 95.118 143.694 95.244 144.126 95.244C144.442 95.244 144.736 95.17 145.008 95.022C145.284 94.87 145.538 94.662 145.77 94.398V89.922H146.838ZM152.072 90.924C152.024 91.012 151.95 91.056 151.85 91.056C151.79 91.056 151.722 91.034 151.646 90.99C151.57 90.946 151.476 90.898 151.364 90.846C151.256 90.79 151.126 90.74 150.974 90.696C150.822 90.648 150.642 90.624 150.434 90.624C150.254 90.624 150.092 90.648 149.948 90.696C149.804 90.74 149.68 90.802 149.576 90.882C149.476 90.962 149.398 91.056 149.342 91.164C149.29 91.268 149.264 91.382 149.264 91.506C149.264 91.662 149.308 91.792 149.396 91.896C149.488 92 149.608 92.09 149.756 92.166C149.904 92.242 150.072 92.31 150.26 92.37C150.448 92.426 150.64 92.488 150.836 92.556C151.036 92.62 151.23 92.692 151.418 92.772C151.606 92.852 151.774 92.952 151.922 93.072C152.07 93.192 152.188 93.34 152.276 93.516C152.368 93.688 152.414 93.896 152.414 94.14C152.414 94.42 152.364 94.68 152.264 94.92C152.164 95.156 152.016 95.362 151.82 95.538C151.624 95.71 151.384 95.846 151.1 95.946C150.816 96.046 150.488 96.096 150.116 96.096C149.692 96.096 149.308 96.028 148.964 95.892C148.62 95.752 148.328 95.574 148.088 95.358L148.34 94.95C148.372 94.898 148.41 94.858 148.454 94.83C148.498 94.802 148.554 94.788 148.622 94.788C148.694 94.788 148.77 94.816 148.85 94.872C148.93 94.928 149.026 94.99 149.138 95.058C149.254 95.126 149.394 95.188 149.558 95.244C149.722 95.3 149.926 95.328 150.17 95.328C150.378 95.328 150.56 95.302 150.716 95.25C150.872 95.194 151.002 95.12 151.106 95.028C151.21 94.936 151.286 94.83 151.334 94.71C151.386 94.59 151.412 94.462 151.412 94.326C151.412 94.158 151.366 94.02 151.274 93.912C151.186 93.8 151.068 93.706 150.92 93.63C150.772 93.55 150.602 93.482 150.41 93.426C150.222 93.366 150.028 93.304 149.828 93.24C149.632 93.176 149.438 93.104 149.246 93.024C149.058 92.94 148.89 92.836 148.742 92.712C148.594 92.588 148.474 92.436 148.382 92.256C148.294 92.072 148.25 91.85 148.25 91.59C148.25 91.358 148.298 91.136 148.394 90.924C148.49 90.708 148.63 90.52 148.814 90.36C148.998 90.196 149.224 90.066 149.492 89.97C149.76 89.874 150.066 89.826 150.41 89.826C150.81 89.826 151.168 89.89 151.484 90.018C151.804 90.142 152.08 90.314 152.312 90.534L152.072 90.924ZM155.589 96.096C155.109 96.096 154.739 95.962 154.479 95.694C154.223 95.426 154.095 95.04 154.095 94.536V90.816H153.363C153.299 90.816 153.245 90.798 153.201 90.762C153.157 90.722 153.135 90.662 153.135 90.582V90.156L154.131 90.03L154.377 88.152C154.389 88.092 154.415 88.044 154.455 88.008C154.499 87.968 154.555 87.948 154.623 87.948H155.163V90.042H156.921V90.816H155.163V94.464C155.163 94.72 155.225 94.91 155.349 95.034C155.473 95.158 155.633 95.22 155.829 95.22C155.941 95.22 156.037 95.206 156.117 95.178C156.201 95.146 156.273 95.112 156.333 95.076C156.393 95.04 156.443 95.008 156.483 94.98C156.527 94.948 156.565 94.932 156.597 94.932C156.653 94.932 156.703 94.966 156.747 95.034L157.059 95.544C156.875 95.716 156.653 95.852 156.393 95.952C156.133 96.048 155.865 96.096 155.589 96.096ZM162.96 96.096C162.48 96.096 162.11 95.962 161.85 95.694C161.594 95.426 161.466 95.04 161.466 94.536V90.816H160.734C160.67 90.816 160.616 90.798 160.572 90.762C160.528 90.722 160.506 90.662 160.506 90.582V90.156L161.502 90.03L161.748 88.152C161.76 88.092 161.786 88.044 161.826 88.008C161.87 87.968 161.926 87.948 161.994 87.948H162.534V90.042H164.292V90.816H162.534V94.464C162.534 94.72 162.596 94.91 162.72 95.034C162.844 95.158 163.004 95.22 163.2 95.22C163.312 95.22 163.408 95.206 163.488 95.178C163.572 95.146 163.644 95.112 163.704 95.076C163.764 95.04 163.814 95.008 163.854 94.98C163.898 94.948 163.936 94.932 163.968 94.932C164.024 94.932 164.074 94.966 164.118 95.034L164.43 95.544C164.246 95.716 164.024 95.852 163.764 95.952C163.504 96.048 163.236 96.096 162.96 96.096ZM170.639 89.922L167.249 97.794C167.213 97.874 167.167 97.938 167.111 97.986C167.059 98.034 166.977 98.058 166.865 98.058H166.073L167.183 95.646L164.675 89.922H165.599C165.691 89.922 165.763 89.946 165.815 89.994C165.871 90.038 165.909 90.088 165.929 90.144L167.555 93.972C167.619 94.14 167.673 94.316 167.717 94.5C167.773 94.312 167.833 94.134 167.897 93.966L169.475 90.144C169.499 90.08 169.539 90.028 169.595 89.988C169.655 89.944 169.721 89.922 169.793 89.922H170.639ZM172.656 94.536C172.852 94.8 173.066 94.986 173.298 95.094C173.53 95.202 173.79 95.256 174.078 95.256C174.646 95.256 175.082 95.054 175.386 94.65C175.69 94.246 175.842 93.67 175.842 92.922C175.842 92.526 175.806 92.186 175.734 91.902C175.666 91.618 175.566 91.386 175.434 91.206C175.302 91.022 175.14 90.888 174.948 90.804C174.756 90.72 174.538 90.678 174.294 90.678C173.946 90.678 173.64 90.758 173.376 90.918C173.116 91.078 172.876 91.304 172.656 91.596V94.536ZM172.602 90.864C172.858 90.548 173.154 90.294 173.49 90.102C173.826 89.91 174.21 89.814 174.642 89.814C174.994 89.814 175.312 89.882 175.596 90.018C175.88 90.15 176.122 90.348 176.322 90.612C176.522 90.872 176.676 91.196 176.784 91.584C176.892 91.972 176.946 92.418 176.946 92.922C176.946 93.37 176.886 93.788 176.766 94.176C176.646 94.56 176.472 94.894 176.244 95.178C176.02 95.458 175.744 95.68 175.416 95.844C175.092 96.004 174.726 96.084 174.318 96.084C173.946 96.084 173.626 96.022 173.358 95.898C173.094 95.77 172.86 95.594 172.656 95.37V98.058H171.582V89.922H172.224C172.376 89.922 172.47 89.996 172.506 90.144L172.602 90.864ZM182.377 92.298C182.377 92.05 182.341 91.824 182.269 91.62C182.201 91.412 182.099 91.234 181.963 91.086C181.831 90.934 181.669 90.818 181.477 90.738C181.285 90.654 181.067 90.612 180.823 90.612C180.311 90.612 179.905 90.762 179.605 91.062C179.309 91.358 179.125 91.77 179.053 92.298H182.377ZM183.241 95.148C183.109 95.308 182.951 95.448 182.767 95.568C182.583 95.684 182.385 95.78 182.173 95.856C181.965 95.932 181.749 95.988 181.525 96.024C181.301 96.064 181.079 96.084 180.859 96.084C180.439 96.084 180.051 96.014 179.695 95.874C179.343 95.73 179.037 95.522 178.777 95.25C178.521 94.974 178.321 94.634 178.177 94.23C178.033 93.826 177.961 93.362 177.961 92.838C177.961 92.414 178.025 92.018 178.153 91.65C178.285 91.282 178.473 90.964 178.717 90.696C178.961 90.424 179.259 90.212 179.611 90.06C179.963 89.904 180.359 89.826 180.799 89.826C181.163 89.826 181.499 89.888 181.807 90.012C182.119 90.132 182.387 90.308 182.611 90.54C182.839 90.768 183.017 91.052 183.145 91.392C183.273 91.728 183.337 92.112 183.337 92.544C183.337 92.712 183.319 92.824 183.283 92.88C183.247 92.936 183.179 92.964 183.079 92.964H179.017C179.029 93.348 179.081 93.682 179.173 93.966C179.269 94.25 179.401 94.488 179.569 94.68C179.737 94.868 179.937 95.01 180.169 95.106C180.401 95.198 180.661 95.244 180.949 95.244C181.217 95.244 181.447 95.214 181.639 95.154C181.835 95.09 182.003 95.022 182.143 94.95C182.283 94.878 182.399 94.812 182.491 94.752C182.587 94.688 182.669 94.656 182.737 94.656C182.825 94.656 182.893 94.69 182.941 94.758L183.241 95.148ZM191.013 93.264C190.521 93.28 190.101 93.32 189.753 93.384C189.409 93.444 189.127 93.524 188.907 93.624C188.691 93.724 188.533 93.842 188.433 93.978C188.337 94.114 188.289 94.266 188.289 94.434C188.289 94.594 188.315 94.732 188.367 94.848C188.419 94.964 188.489 95.06 188.577 95.136C188.669 95.208 188.775 95.262 188.895 95.298C189.019 95.33 189.151 95.346 189.291 95.346C189.479 95.346 189.651 95.328 189.807 95.292C189.963 95.252 190.109 95.196 190.245 95.124C190.385 95.052 190.517 94.966 190.641 94.866C190.769 94.766 190.893 94.652 191.013 94.524V93.264ZM187.563 90.78C187.899 90.456 188.261 90.214 188.649 90.054C189.037 89.894 189.467 89.814 189.939 89.814C190.279 89.814 190.581 89.87 190.845 89.982C191.109 90.094 191.331 90.25 191.511 90.45C191.691 90.65 191.827 90.892 191.919 91.176C192.011 91.46 192.057 91.772 192.057 92.112V96H191.583C191.479 96 191.399 95.984 191.343 95.952C191.287 95.916 191.243 95.848 191.211 95.748L191.091 95.172C190.931 95.32 190.775 95.452 190.623 95.568C190.471 95.68 190.311 95.776 190.143 95.856C189.975 95.932 189.795 95.99 189.603 96.03C189.415 96.074 189.205 96.096 188.973 96.096C188.737 96.096 188.515 96.064 188.307 96C188.099 95.932 187.917 95.832 187.761 95.7C187.609 95.568 187.487 95.402 187.395 95.202C187.307 94.998 187.263 94.758 187.263 94.482C187.263 94.242 187.329 94.012 187.461 93.792C187.593 93.568 187.807 93.37 188.103 93.198C188.399 93.026 188.785 92.886 189.261 92.778C189.737 92.666 190.321 92.602 191.013 92.586V92.112C191.013 91.64 190.911 91.284 190.707 91.044C190.503 90.8 190.205 90.678 189.813 90.678C189.549 90.678 189.327 90.712 189.147 90.78C188.971 90.844 188.817 90.918 188.685 91.002C188.557 91.082 188.445 91.156 188.349 91.224C188.257 91.288 188.165 91.32 188.073 91.32C188.001 91.32 187.939 91.302 187.887 91.266C187.835 91.226 187.791 91.178 187.755 91.122L187.563 90.78ZM200.714 91.362C200.522 91.106 200.308 90.924 200.072 90.816C199.836 90.704 199.574 90.648 199.286 90.648C198.722 90.648 198.288 90.85 197.984 91.254C197.68 91.658 197.528 92.234 197.528 92.982C197.528 93.378 197.562 93.718 197.63 94.002C197.698 94.282 197.798 94.514 197.93 94.698C198.062 94.878 198.224 95.01 198.416 95.094C198.608 95.178 198.826 95.22 199.07 95.22C199.422 95.22 199.728 95.14 199.988 94.98C200.252 94.82 200.494 94.594 200.714 94.302V91.362ZM201.782 89.922V98.058H200.714V95.094C200.462 95.39 200.172 95.63 199.844 95.814C199.516 95.994 199.142 96.084 198.722 96.084C198.374 96.084 198.058 96.018 197.774 95.886C197.49 95.75 197.248 95.552 197.048 95.292C196.848 95.032 196.694 94.708 196.586 94.32C196.478 93.932 196.424 93.486 196.424 92.982C196.424 92.534 196.484 92.118 196.604 91.734C196.724 91.346 196.896 91.01 197.12 90.726C197.344 90.442 197.618 90.22 197.942 90.06C198.27 89.896 198.638 89.814 199.046 89.814C199.442 89.814 199.778 89.884 200.054 90.024C200.33 90.164 200.574 90.36 200.786 90.612L200.858 90.144C200.898 89.996 200.994 89.922 201.146 89.922H201.782ZM208.467 89.922V96H207.831C207.679 96 207.583 95.926 207.543 95.778L207.459 95.124C207.195 95.416 206.899 95.652 206.571 95.832C206.243 96.008 205.867 96.096 205.443 96.096C205.111 96.096 204.817 96.042 204.561 95.934C204.309 95.822 204.097 95.666 203.925 95.466C203.753 95.266 203.623 95.024 203.535 94.74C203.451 94.456 203.409 94.142 203.409 93.798V89.922H204.477V93.798C204.477 94.258 204.581 94.614 204.789 94.866C205.001 95.118 205.323 95.244 205.755 95.244C206.071 95.244 206.365 95.17 206.637 95.022C206.913 94.87 207.167 94.662 207.399 94.398V89.922H208.467ZM214.228 92.298C214.228 92.05 214.192 91.824 214.12 91.62C214.052 91.412 213.95 91.234 213.814 91.086C213.682 90.934 213.52 90.818 213.328 90.738C213.136 90.654 212.918 90.612 212.674 90.612C212.162 90.612 211.756 90.762 211.456 91.062C211.16 91.358 210.976 91.77 210.904 92.298H214.228ZM215.092 95.148C214.96 95.308 214.802 95.448 214.618 95.568C214.434 95.684 214.236 95.78 214.024 95.856C213.816 95.932 213.6 95.988 213.376 96.024C213.152 96.064 212.93 96.084 212.71 96.084C212.29 96.084 211.902 96.014 211.546 95.874C211.194 95.73 210.888 95.522 210.628 95.25C210.372 94.974 210.172 94.634 210.028 94.23C209.884 93.826 209.812 93.362 209.812 92.838C209.812 92.414 209.876 92.018 210.004 91.65C210.136 91.282 210.324 90.964 210.568 90.696C210.812 90.424 211.11 90.212 211.462 90.06C211.814 89.904 212.21 89.826 212.65 89.826C213.014 89.826 213.35 89.888 213.658 90.012C213.97 90.132 214.238 90.308 214.462 90.54C214.69 90.768 214.868 91.052 214.996 91.392C215.124 91.728 215.188 92.112 215.188 92.544C215.188 92.712 215.17 92.824 215.134 92.88C215.098 92.936 215.03 92.964 214.93 92.964H210.868C210.88 93.348 210.932 93.682 211.024 93.966C211.12 94.25 211.252 94.488 211.42 94.68C211.588 94.868 211.788 95.01 212.02 95.106C212.252 95.198 212.512 95.244 212.8 95.244C213.068 95.244 213.298 95.214 213.49 95.154C213.686 95.09 213.854 95.022 213.994 94.95C214.134 94.878 214.25 94.812 214.342 94.752C214.438 94.688 214.52 94.656 214.588 94.656C214.676 94.656 214.744 94.69 214.792 94.758L215.092 95.148ZM220.04 90.924C219.992 91.012 219.918 91.056 219.818 91.056C219.758 91.056 219.69 91.034 219.614 90.99C219.538 90.946 219.444 90.898 219.332 90.846C219.224 90.79 219.094 90.74 218.942 90.696C218.79 90.648 218.61 90.624 218.402 90.624C218.222 90.624 218.06 90.648 217.916 90.696C217.772 90.74 217.648 90.802 217.544 90.882C217.444 90.962 217.366 91.056 217.31 91.164C217.258 91.268 217.232 91.382 217.232 91.506C217.232 91.662 217.276 91.792 217.364 91.896C217.456 92 217.576 92.09 217.724 92.166C217.872 92.242 218.04 92.31 218.228 92.37C218.416 92.426 218.608 92.488 218.804 92.556C219.004 92.62 219.198 92.692 219.386 92.772C219.574 92.852 219.742 92.952 219.89 93.072C220.038 93.192 220.156 93.34 220.244 93.516C220.336 93.688 220.382 93.896 220.382 94.14C220.382 94.42 220.332 94.68 220.232 94.92C220.132 95.156 219.984 95.362 219.788 95.538C219.592 95.71 219.352 95.846 219.068 95.946C218.784 96.046 218.456 96.096 218.084 96.096C217.66 96.096 217.276 96.028 216.932 95.892C216.588 95.752 216.296 95.574 216.056 95.358L216.308 94.95C216.34 94.898 216.378 94.858 216.422 94.83C216.466 94.802 216.522 94.788 216.59 94.788C216.662 94.788 216.738 94.816 216.818 94.872C216.898 94.928 216.994 94.99 217.106 95.058C217.222 95.126 217.362 95.188 217.526 95.244C217.69 95.3 217.894 95.328 218.138 95.328C218.346 95.328 218.528 95.302 218.684 95.25C218.84 95.194 218.97 95.12 219.074 95.028C219.178 94.936 219.254 94.83 219.302 94.71C219.354 94.59 219.38 94.462 219.38 94.326C219.38 94.158 219.334 94.02 219.242 93.912C219.154 93.8 219.036 93.706 218.888 93.63C218.74 93.55 218.57 93.482 218.378 93.426C218.19 93.366 217.996 93.304 217.796 93.24C217.6 93.176 217.406 93.104 217.214 93.024C217.026 92.94 216.858 92.836 216.71 92.712C216.562 92.588 216.442 92.436 216.35 92.256C216.262 92.072 216.218 91.85 216.218 91.59C216.218 91.358 216.266 91.136 216.362 90.924C216.458 90.708 216.598 90.52 216.782 90.36C216.966 90.196 217.192 90.066 217.46 89.97C217.728 89.874 218.034 89.826 218.378 89.826C218.778 89.826 219.136 89.89 219.452 90.018C219.772 90.142 220.048 90.314 220.28 90.534L220.04 90.924ZM227.332 96H226.264V90.816H223.132V94.464C223.132 94.72 223.194 94.91 223.318 95.034C223.442 95.158 223.602 95.22 223.798 95.22C223.91 95.22 224.006 95.206 224.086 95.178C224.17 95.146 224.242 95.112 224.302 95.076C224.362 95.04 224.412 95.008 224.452 94.98C224.496 94.948 224.534 94.932 224.566 94.932C224.622 94.932 224.672 94.966 224.716 95.034L225.028 95.544C224.844 95.716 224.622 95.852 224.362 95.952C224.102 96.048 223.834 96.096 223.558 96.096C223.078 96.096 222.708 95.962 222.448 95.694C222.192 95.426 222.064 95.04 222.064 94.536V90.816H221.332C221.268 90.816 221.214 90.798 221.17 90.762C221.126 90.722 221.104 90.662 221.104 90.582V90.156L222.1 90.024L222.346 88.152C222.358 88.092 222.384 88.044 222.424 88.008C222.468 87.968 222.524 87.948 222.592 87.948H223.132V90.042H227.332V96ZM227.596 87.972C227.596 88.076 227.574 88.174 227.53 88.266C227.49 88.354 227.434 88.432 227.362 88.5C227.294 88.568 227.214 88.622 227.122 88.662C227.03 88.702 226.932 88.722 226.828 88.722C226.724 88.722 226.626 88.702 226.534 88.662C226.446 88.622 226.368 88.568 226.3 88.5C226.232 88.432 226.178 88.354 226.138 88.266C226.098 88.174 226.078 88.076 226.078 87.972C226.078 87.868 226.098 87.77 226.138 87.678C226.178 87.582 226.232 87.5 226.3 87.432C226.368 87.36 226.446 87.304 226.534 87.264C226.626 87.224 226.724 87.204 226.828 87.204C226.932 87.204 227.03 87.224 227.122 87.264C227.214 87.304 227.294 87.36 227.362 87.432C227.434 87.5 227.49 87.582 227.53 87.678C227.574 87.77 227.596 87.868 227.596 87.972ZM231.648 89.826C232.092 89.826 232.492 89.9 232.848 90.048C233.204 90.196 233.508 90.406 233.76 90.678C234.012 90.95 234.204 91.28 234.336 91.668C234.472 92.052 234.54 92.482 234.54 92.958C234.54 93.438 234.472 93.87 234.336 94.254C234.204 94.638 234.012 94.966 233.76 95.238C233.508 95.51 233.204 95.72 232.848 95.868C232.492 96.012 232.092 96.084 231.648 96.084C231.2 96.084 230.796 96.012 230.436 95.868C230.08 95.72 229.776 95.51 229.524 95.238C229.272 94.966 229.078 94.638 228.942 94.254C228.81 93.87 228.744 93.438 228.744 92.958C228.744 92.482 228.81 92.052 228.942 91.668C229.078 91.28 229.272 90.95 229.524 90.678C229.776 90.406 230.08 90.196 230.436 90.048C230.796 89.9 231.2 89.826 231.648 89.826ZM231.648 95.25C232.248 95.25 232.696 95.05 232.992 94.65C233.288 94.246 233.436 93.684 233.436 92.964C233.436 92.24 233.288 91.676 232.992 91.272C232.696 90.868 232.248 90.666 231.648 90.666C231.344 90.666 231.078 90.718 230.85 90.822C230.626 90.926 230.438 91.076 230.286 91.272C230.138 91.468 230.026 91.71 229.95 91.998C229.878 92.282 229.842 92.604 229.842 92.964C229.842 93.684 229.99 94.246 230.286 94.65C230.586 95.05 231.04 95.25 231.648 95.25ZM236.903 90.804C237.035 90.656 237.175 90.522 237.323 90.402C237.471 90.282 237.627 90.18 237.791 90.096C237.959 90.008 238.135 89.942 238.319 89.898C238.507 89.85 238.709 89.826 238.925 89.826C239.257 89.826 239.549 89.882 239.801 89.994C240.057 90.102 240.269 90.258 240.437 90.462C240.609 90.662 240.739 90.904 240.827 91.188C240.915 91.472 240.959 91.786 240.959 92.13V96H239.885V92.13C239.885 91.67 239.779 91.314 239.567 91.062C239.359 90.806 239.041 90.678 238.613 90.678C238.297 90.678 238.001 90.754 237.725 90.906C237.453 91.058 237.201 91.264 236.969 91.524V96H235.895V89.922H236.537C236.689 89.922 236.783 89.996 236.819 90.144L236.903 90.804ZM247.523 96.096C247.043 96.096 246.673 95.962 246.413 95.694C246.157 95.426 246.029 95.04 246.029 94.536V90.816H245.297C245.233 90.816 245.179 90.798 245.135 90.762C245.091 90.722 245.069 90.662 245.069 90.582V90.156L246.065 90.03L246.311 88.152C246.323 88.092 246.349 88.044 246.389 88.008C246.433 87.968 246.489 87.948 246.557 87.948H247.097V90.042H248.855V90.816H247.097V94.464C247.097 94.72 247.159 94.91 247.283 95.034C247.407 95.158 247.567 95.22 247.763 95.22C247.875 95.22 247.971 95.206 248.051 95.178C248.135 95.146 248.207 95.112 248.267 95.076C248.327 95.04 248.377 95.008 248.417 94.98C248.461 94.948 248.499 94.932 248.531 94.932C248.587 94.932 248.637 94.966 248.681 95.034L248.993 95.544C248.809 95.716 248.587 95.852 248.327 95.952C248.067 96.048 247.799 96.096 247.523 96.096ZM252.484 89.826C252.928 89.826 253.328 89.9 253.684 90.048C254.04 90.196 254.344 90.406 254.596 90.678C254.848 90.95 255.04 91.28 255.172 91.668C255.308 92.052 255.376 92.482 255.376 92.958C255.376 93.438 255.308 93.87 255.172 94.254C255.04 94.638 254.848 94.966 254.596 95.238C254.344 95.51 254.04 95.72 253.684 95.868C253.328 96.012 252.928 96.084 252.484 96.084C252.036 96.084 251.632 96.012 251.272 95.868C250.916 95.72 250.612 95.51 250.36 95.238C250.108 94.966 249.914 94.638 249.778 94.254C249.646 93.87 249.58 93.438 249.58 92.958C249.58 92.482 249.646 92.052 249.778 91.668C249.914 91.28 250.108 90.95 250.36 90.678C250.612 90.406 250.916 90.196 251.272 90.048C251.632 89.9 252.036 89.826 252.484 89.826ZM252.484 95.25C253.084 95.25 253.532 95.05 253.828 94.65C254.124 94.246 254.272 93.684 254.272 92.964C254.272 92.24 254.124 91.676 253.828 91.272C253.532 90.868 253.084 90.666 252.484 90.666C252.18 90.666 251.914 90.718 251.686 90.822C251.462 90.926 251.274 91.076 251.122 91.272C250.974 91.468 250.862 91.71 250.786 91.998C250.714 92.282 250.678 92.604 250.678 92.964C250.678 93.684 250.826 94.246 251.122 94.65C251.422 95.05 251.876 95.25 252.484 95.25ZM261.919 93.03C262.135 93.03 262.325 93 262.489 92.94C262.653 92.88 262.791 92.796 262.903 92.688C263.015 92.58 263.099 92.452 263.155 92.304C263.211 92.152 263.239 91.986 263.239 91.806C263.239 91.434 263.125 91.138 262.897 90.918C262.673 90.698 262.347 90.588 261.919 90.588C261.487 90.588 261.157 90.698 260.929 90.918C260.705 91.138 260.593 91.434 260.593 91.806C260.593 91.986 260.621 92.152 260.677 92.304C260.737 92.452 260.823 92.58 260.935 92.688C261.047 92.796 261.185 92.88 261.349 92.94C261.513 93 261.703 93.03 261.919 93.03ZM263.845 96.33C263.845 96.182 263.803 96.062 263.719 95.97C263.635 95.878 263.521 95.806 263.377 95.754C263.237 95.702 263.073 95.666 262.885 95.646C262.697 95.622 262.497 95.604 262.285 95.592C262.077 95.58 261.865 95.568 261.649 95.556C261.433 95.544 261.225 95.524 261.025 95.496C260.801 95.6 260.617 95.732 260.473 95.892C260.333 96.048 260.263 96.232 260.263 96.444C260.263 96.58 260.297 96.706 260.365 96.822C260.437 96.942 260.545 97.044 260.689 97.128C260.833 97.216 261.013 97.284 261.229 97.332C261.449 97.384 261.707 97.41 262.003 97.41C262.291 97.41 262.549 97.384 262.777 97.332C263.005 97.28 263.197 97.206 263.353 97.11C263.513 97.014 263.635 96.9 263.719 96.768C263.803 96.636 263.845 96.49 263.845 96.33ZM264.931 90.162V90.558C264.931 90.69 264.847 90.774 264.679 90.81L263.989 90.9C264.125 91.164 264.193 91.456 264.193 91.776C264.193 92.072 264.135 92.342 264.019 92.586C263.907 92.826 263.751 93.032 263.551 93.204C263.351 93.376 263.111 93.508 262.831 93.6C262.551 93.692 262.247 93.738 261.919 93.738C261.635 93.738 261.367 93.704 261.115 93.636C260.987 93.716 260.889 93.802 260.821 93.894C260.753 93.982 260.719 94.072 260.719 94.164C260.719 94.308 260.777 94.418 260.893 94.494C261.013 94.566 261.169 94.618 261.361 94.65C261.553 94.682 261.771 94.702 262.015 94.71C262.263 94.718 262.515 94.732 262.771 94.752C263.031 94.768 263.283 94.798 263.527 94.842C263.775 94.886 263.995 94.958 264.187 95.058C264.379 95.158 264.533 95.296 264.649 95.472C264.769 95.648 264.829 95.876 264.829 96.156C264.829 96.416 264.763 96.668 264.631 96.912C264.503 97.156 264.317 97.372 264.073 97.56C263.829 97.752 263.529 97.904 263.173 98.016C262.821 98.132 262.423 98.19 261.979 98.19C261.535 98.19 261.147 98.146 260.815 98.058C260.483 97.97 260.207 97.852 259.987 97.704C259.767 97.556 259.601 97.384 259.489 97.188C259.381 96.996 259.327 96.794 259.327 96.582C259.327 96.282 259.421 96.028 259.609 95.82C259.797 95.612 260.055 95.446 260.383 95.322C260.203 95.242 260.059 95.136 259.951 95.004C259.847 94.868 259.795 94.686 259.795 94.458C259.795 94.37 259.811 94.28 259.843 94.188C259.875 94.092 259.923 93.998 259.987 93.906C260.055 93.81 260.137 93.72 260.233 93.636C260.329 93.552 260.441 93.478 260.569 93.414C260.269 93.246 260.035 93.024 259.867 92.748C259.699 92.468 259.615 92.144 259.615 91.776C259.615 91.48 259.671 91.212 259.783 90.972C259.899 90.728 260.059 90.522 260.263 90.354C260.467 90.182 260.709 90.05 260.989 89.958C261.273 89.866 261.583 89.82 261.919 89.82C262.183 89.82 262.429 89.85 262.657 89.91C262.885 89.966 263.093 90.05 263.281 90.162H264.931ZM270.01 92.298C270.01 92.05 269.974 91.824 269.902 91.62C269.834 91.412 269.732 91.234 269.596 91.086C269.464 90.934 269.302 90.818 269.11 90.738C268.918 90.654 268.7 90.612 268.456 90.612C267.944 90.612 267.538 90.762 267.238 91.062C266.942 91.358 266.758 91.77 266.686 92.298H270.01ZM270.874 95.148C270.742 95.308 270.584 95.448 270.4 95.568C270.216 95.684 270.018 95.78 269.806 95.856C269.598 95.932 269.382 95.988 269.158 96.024C268.934 96.064 268.712 96.084 268.492 96.084C268.072 96.084 267.684 96.014 267.328 95.874C266.976 95.73 266.67 95.522 266.41 95.25C266.154 94.974 265.954 94.634 265.81 94.23C265.666 93.826 265.594 93.362 265.594 92.838C265.594 92.414 265.658 92.018 265.786 91.65C265.918 91.282 266.106 90.964 266.35 90.696C266.594 90.424 266.892 90.212 267.244 90.06C267.596 89.904 267.992 89.826 268.432 89.826C268.796 89.826 269.132 89.888 269.44 90.012C269.752 90.132 270.02 90.308 270.244 90.54C270.472 90.768 270.65 91.052 270.778 91.392C270.906 91.728 270.97 92.112 270.97 92.544C270.97 92.712 270.952 92.824 270.916 92.88C270.88 92.936 270.812 92.964 270.712 92.964H266.65C266.662 93.348 266.714 93.682 266.806 93.966C266.902 94.25 267.034 94.488 267.202 94.68C267.37 94.868 267.57 95.01 267.802 95.106C268.034 95.198 268.294 95.244 268.582 95.244C268.85 95.244 269.08 95.214 269.272 95.154C269.468 95.09 269.636 95.022 269.776 94.95C269.916 94.878 270.032 94.812 270.124 94.752C270.22 94.688 270.302 94.656 270.37 94.656C270.458 94.656 270.526 94.69 270.574 94.758L270.874 95.148ZM274.101 96.096C273.621 96.096 273.251 95.962 272.991 95.694C272.735 95.426 272.607 95.04 272.607 94.536V90.816H271.875C271.811 90.816 271.757 90.798 271.713 90.762C271.669 90.722 271.647 90.662 271.647 90.582V90.156L272.643 90.03L272.889 88.152C272.901 88.092 272.927 88.044 272.967 88.008C273.011 87.968 273.067 87.948 273.135 87.948H273.675V90.042H275.433V90.816H273.675V94.464C273.675 94.72 273.737 94.91 273.861 95.034C273.985 95.158 274.145 95.22 274.341 95.22C274.453 95.22 274.549 95.206 274.629 95.178C274.713 95.146 274.785 95.112 274.845 95.076C274.905 95.04 274.955 95.008 274.995 94.98C275.039 94.948 275.077 94.932 275.109 94.932C275.165 94.932 275.215 94.966 275.259 95.034L275.571 95.544C275.387 95.716 275.165 95.852 274.905 95.952C274.645 96.048 274.377 96.096 274.101 96.096ZM80.5208 107.362C80.3288 107.106 80.1148 106.924 79.8788 106.816C79.6428 106.704 79.3808 106.648 79.0928 106.648C78.5288 106.648 78.0948 106.85 77.7908 107.254C77.4868 107.658 77.3348 108.234 77.3348 108.982C77.3348 109.378 77.3688 109.718 77.4368 110.002C77.5048 110.282 77.6048 110.514 77.7368 110.698C77.8688 110.878 78.0308 111.01 78.2228 111.094C78.4148 111.178 78.6328 111.22 78.8768 111.22C79.2288 111.22 79.5348 111.14 79.7948 110.98C80.0588 110.82 80.3008 110.594 80.5208 110.302V107.362ZM81.5888 105.922V114.058H80.5208V111.094C80.2688 111.39 79.9788 111.63 79.6508 111.814C79.3228 111.994 78.9488 112.084 78.5288 112.084C78.1808 112.084 77.8648 112.018 77.5808 111.886C77.2968 111.75 77.0548 111.552 76.8548 111.292C76.6548 111.032 76.5008 110.708 76.3928 110.32C76.2848 109.932 76.2308 109.486 76.2308 108.982C76.2308 108.534 76.2908 108.118 76.4108 107.734C76.5308 107.346 76.7028 107.01 76.9268 106.726C77.1508 106.442 77.4248 106.22 77.7488 106.06C78.0768 105.896 78.4448 105.814 78.8528 105.814C79.2488 105.814 79.5848 105.884 79.8608 106.024C80.1368 106.164 80.3808 106.36 80.5928 106.612L80.6648 106.144C80.7048 105.996 80.8008 105.922 80.9528 105.922H81.5888ZM88.2737 105.922V112H87.6377C87.4857 112 87.3897 111.926 87.3497 111.778L87.2657 111.124C87.0017 111.416 86.7057 111.652 86.3777 111.832C86.0497 112.008 85.6737 112.096 85.2497 112.096C84.9177 112.096 84.6237 112.042 84.3677 111.934C84.1157 111.822 83.9037 111.666 83.7317 111.466C83.5597 111.266 83.4297 111.024 83.3417 110.74C83.2577 110.456 83.2157 110.142 83.2157 109.798V105.922H84.2837V109.798C84.2837 110.258 84.3877 110.614 84.5957 110.866C84.8077 111.118 85.1297 111.244 85.5617 111.244C85.8777 111.244 86.1717 111.17 86.4437 111.022C86.7197 110.87 86.9737 110.662 87.2057 110.398V105.922H88.2737ZM91.0951 105.922V112H90.0271V105.922H91.0951ZM91.3231 104.014C91.3231 104.118 91.3011 104.216 91.2571 104.308C91.2171 104.396 91.1611 104.476 91.0891 104.548C91.0211 104.616 90.9391 104.67 90.8431 104.71C90.7511 104.75 90.6531 104.77 90.5491 104.77C90.4451 104.77 90.3471 104.75 90.2551 104.71C90.1671 104.67 90.0891 104.616 90.0211 104.548C89.9531 104.476 89.8991 104.396 89.8591 104.308C89.8191 104.216 89.7991 104.118 89.7991 104.014C89.7991 103.91 89.8191 103.812 89.8591 103.72C89.8991 103.624 89.9531 103.542 90.0211 103.474C90.0891 103.402 90.1671 103.346 90.2551 103.306C90.3471 103.266 90.4451 103.246 90.5491 103.246C90.6531 103.246 90.7511 103.266 90.8431 103.306C90.9391 103.346 91.0211 103.402 91.0891 103.474C91.1611 103.542 91.2171 103.624 91.2571 103.72C91.3011 103.812 91.3231 103.91 91.3231 104.014ZM97.0799 107.002C97.0479 107.046 97.0159 107.08 96.9839 107.104C96.9519 107.128 96.9079 107.14 96.8519 107.14C96.7919 107.14 96.7259 107.116 96.6539 107.068C96.5819 107.016 96.4919 106.96 96.3839 106.9C96.2799 106.84 96.1499 106.786 95.9939 106.738C95.8419 106.686 95.6539 106.66 95.4299 106.66C95.1299 106.66 94.8659 106.714 94.6379 106.822C94.4099 106.926 94.2179 107.078 94.0619 107.278C93.9099 107.478 93.7939 107.72 93.7139 108.004C93.6379 108.288 93.5999 108.606 93.5999 108.958C93.5999 109.326 93.6419 109.654 93.7259 109.942C93.8099 110.226 93.9279 110.466 94.0799 110.662C94.2359 110.854 94.4219 111.002 94.6379 111.106C94.8579 111.206 95.1039 111.256 95.3759 111.256C95.6359 111.256 95.8499 111.226 96.0179 111.166C96.1859 111.102 96.3239 111.032 96.4319 110.956C96.5439 110.88 96.6359 110.812 96.7079 110.752C96.7839 110.688 96.8579 110.656 96.9299 110.656C97.0179 110.656 97.0859 110.69 97.1339 110.758L97.4339 111.148C97.3019 111.312 97.1519 111.452 96.9839 111.568C96.8159 111.684 96.6339 111.782 96.4379 111.862C96.2459 111.938 96.0439 111.994 95.8319 112.03C95.6199 112.066 95.4039 112.084 95.1839 112.084C94.8039 112.084 94.4499 112.014 94.1219 111.874C93.7979 111.734 93.5159 111.532 93.2759 111.268C93.0359 111 92.8479 110.672 92.7119 110.284C92.5759 109.896 92.5079 109.454 92.5079 108.958C92.5079 108.506 92.5699 108.088 92.6939 107.704C92.8219 107.32 93.0059 106.99 93.2459 106.714C93.4899 106.434 93.7879 106.216 94.1399 106.06C94.4959 105.904 94.9039 105.826 95.3639 105.826C95.7919 105.826 96.1679 105.896 96.4919 106.036C96.8199 106.172 97.1099 106.366 97.3619 106.618L97.0799 107.002ZM99.6544 103.162V108.364H99.9304C100.01 108.364 100.076 108.354 100.128 108.334C100.184 108.31 100.242 108.264 100.302 108.196L102.222 106.138C102.278 106.07 102.336 106.018 102.396 105.982C102.46 105.942 102.544 105.922 102.648 105.922H103.614L101.376 108.304C101.268 108.44 101.152 108.546 101.028 108.622C101.1 108.67 101.164 108.726 101.22 108.79C101.28 108.85 101.336 108.92 101.388 109L103.764 112H102.81C102.718 112 102.638 111.986 102.57 111.958C102.506 111.926 102.45 111.87 102.402 111.79L100.404 109.3C100.344 109.216 100.284 109.162 100.224 109.138C100.168 109.11 100.08 109.096 99.9604 109.096H99.6544V112H98.5804V103.162H99.6544ZM104.608 113.452C104.576 113.424 104.554 113.398 104.542 113.374C104.53 113.35 104.524 113.32 104.524 113.284C104.524 113.256 104.532 113.228 104.548 113.2C104.568 113.172 104.59 113.146 104.614 113.122C104.654 113.078 104.704 113.02 104.764 112.948C104.828 112.876 104.892 112.79 104.956 112.69C105.02 112.594 105.078 112.486 105.13 112.366C105.186 112.25 105.226 112.126 105.25 111.994C105.238 111.998 105.224 112 105.208 112C105.196 112 105.184 112 105.172 112C104.964 112 104.794 111.932 104.662 111.796C104.534 111.656 104.47 111.478 104.47 111.262C104.47 111.074 104.534 110.914 104.662 110.782C104.794 110.65 104.968 110.584 105.184 110.584C105.304 110.584 105.41 110.606 105.502 110.65C105.594 110.694 105.67 110.756 105.73 110.836C105.794 110.912 105.842 111.002 105.874 111.106C105.906 111.206 105.922 111.316 105.922 111.436C105.922 111.616 105.896 111.804 105.844 112C105.796 112.192 105.722 112.382 105.622 112.57C105.526 112.762 105.408 112.948 105.268 113.128C105.128 113.308 104.968 113.474 104.788 113.626L104.608 113.452ZM113.757 109.264C113.265 109.28 112.845 109.32 112.497 109.384C112.153 109.444 111.871 109.524 111.651 109.624C111.435 109.724 111.277 109.842 111.177 109.978C111.081 110.114 111.033 110.266 111.033 110.434C111.033 110.594 111.059 110.732 111.111 110.848C111.163 110.964 111.233 111.06 111.321 111.136C111.413 111.208 111.519 111.262 111.639 111.298C111.763 111.33 111.895 111.346 112.035 111.346C112.223 111.346 112.395 111.328 112.551 111.292C112.707 111.252 112.853 111.196 112.989 111.124C113.129 111.052 113.261 110.966 113.385 110.866C113.513 110.766 113.637 110.652 113.757 110.524V109.264ZM110.307 106.78C110.643 106.456 111.005 106.214 111.393 106.054C111.781 105.894 112.211 105.814 112.683 105.814C113.023 105.814 113.325 105.87 113.589 105.982C113.853 106.094 114.075 106.25 114.255 106.45C114.435 106.65 114.571 106.892 114.663 107.176C114.755 107.46 114.801 107.772 114.801 108.112V112H114.327C114.223 112 114.143 111.984 114.087 111.952C114.031 111.916 113.987 111.848 113.955 111.748L113.835 111.172C113.675 111.32 113.519 111.452 113.367 111.568C113.215 111.68 113.055 111.776 112.887 111.856C112.719 111.932 112.539 111.99 112.347 112.03C112.159 112.074 111.949 112.096 111.717 112.096C111.481 112.096 111.259 112.064 111.051 112C110.843 111.932 110.661 111.832 110.505 111.7C110.353 111.568 110.231 111.402 110.139 111.202C110.051 110.998 110.007 110.758 110.007 110.482C110.007 110.242 110.073 110.012 110.205 109.792C110.337 109.568 110.551 109.37 110.847 109.198C111.143 109.026 111.529 108.886 112.005 108.778C112.481 108.666 113.065 108.602 113.757 108.586V108.112C113.757 107.64 113.655 107.284 113.451 107.044C113.247 106.8 112.949 106.678 112.557 106.678C112.293 106.678 112.071 106.712 111.891 106.78C111.715 106.844 111.561 106.918 111.429 107.002C111.301 107.082 111.189 107.156 111.093 107.224C111.001 107.288 110.909 107.32 110.817 107.32C110.745 107.32 110.683 107.302 110.631 107.266C110.579 107.226 110.535 107.178 110.499 107.122L110.307 106.78ZM120.658 107.002C120.626 107.046 120.594 107.08 120.562 107.104C120.53 107.128 120.486 107.14 120.43 107.14C120.37 107.14 120.304 107.116 120.232 107.068C120.16 107.016 120.07 106.96 119.962 106.9C119.858 106.84 119.728 106.786 119.572 106.738C119.42 106.686 119.232 106.66 119.008 106.66C118.708 106.66 118.444 106.714 118.216 106.822C117.988 106.926 117.796 107.078 117.64 107.278C117.488 107.478 117.372 107.72 117.292 108.004C117.216 108.288 117.178 108.606 117.178 108.958C117.178 109.326 117.22 109.654 117.304 109.942C117.388 110.226 117.506 110.466 117.658 110.662C117.814 110.854 118 111.002 118.216 111.106C118.436 111.206 118.682 111.256 118.954 111.256C119.214 111.256 119.428 111.226 119.596 111.166C119.764 111.102 119.902 111.032 120.01 110.956C120.122 110.88 120.214 110.812 120.286 110.752C120.362 110.688 120.436 110.656 120.508 110.656C120.596 110.656 120.664 110.69 120.712 110.758L121.012 111.148C120.88 111.312 120.73 111.452 120.562 111.568C120.394 111.684 120.212 111.782 120.016 111.862C119.824 111.938 119.622 111.994 119.41 112.03C119.198 112.066 118.982 112.084 118.762 112.084C118.382 112.084 118.028 112.014 117.7 111.874C117.376 111.734 117.094 111.532 116.854 111.268C116.614 111 116.426 110.672 116.29 110.284C116.154 109.896 116.086 109.454 116.086 108.958C116.086 108.506 116.148 108.088 116.272 107.704C116.4 107.32 116.584 106.99 116.824 106.714C117.068 106.434 117.366 106.216 117.718 106.06C118.074 105.904 118.482 105.826 118.942 105.826C119.37 105.826 119.746 105.896 120.07 106.036C120.398 106.172 120.688 106.366 120.94 106.618L120.658 107.002ZM126.283 107.002C126.251 107.046 126.219 107.08 126.187 107.104C126.155 107.128 126.111 107.14 126.055 107.14C125.995 107.14 125.929 107.116 125.857 107.068C125.785 107.016 125.695 106.96 125.587 106.9C125.483 106.84 125.353 106.786 125.197 106.738C125.045 106.686 124.857 106.66 124.633 106.66C124.333 106.66 124.069 106.714 123.841 106.822C123.613 106.926 123.421 107.078 123.265 107.278C123.113 107.478 122.997 107.72 122.917 108.004C122.841 108.288 122.803 108.606 122.803 108.958C122.803 109.326 122.845 109.654 122.929 109.942C123.013 110.226 123.131 110.466 123.283 110.662C123.439 110.854 123.625 111.002 123.841 111.106C124.061 111.206 124.307 111.256 124.579 111.256C124.839 111.256 125.053 111.226 125.221 111.166C125.389 111.102 125.527 111.032 125.635 110.956C125.747 110.88 125.839 110.812 125.911 110.752C125.987 110.688 126.061 110.656 126.133 110.656C126.221 110.656 126.289 110.69 126.337 110.758L126.637 111.148C126.505 111.312 126.355 111.452 126.187 111.568C126.019 111.684 125.837 111.782 125.641 111.862C125.449 111.938 125.247 111.994 125.035 112.03C124.823 112.066 124.607 112.084 124.387 112.084C124.007 112.084 123.653 112.014 123.325 111.874C123.001 111.734 122.719 111.532 122.479 111.268C122.239 111 122.051 110.672 121.915 110.284C121.779 109.896 121.711 109.454 121.711 108.958C121.711 108.506 121.773 108.088 121.897 107.704C122.025 107.32 122.209 106.99 122.449 106.714C122.693 106.434 122.991 106.216 123.343 106.06C123.699 105.904 124.107 105.826 124.567 105.826C124.995 105.826 125.371 105.896 125.695 106.036C126.023 106.172 126.313 106.366 126.565 106.618L126.283 107.002ZM132.782 105.922V112H132.146C131.994 112 131.898 111.926 131.858 111.778L131.774 111.124C131.51 111.416 131.214 111.652 130.886 111.832C130.558 112.008 130.182 112.096 129.758 112.096C129.426 112.096 129.132 112.042 128.876 111.934C128.624 111.822 128.412 111.666 128.24 111.466C128.068 111.266 127.938 111.024 127.85 110.74C127.766 110.456 127.724 110.142 127.724 109.798V105.922H128.792V109.798C128.792 110.258 128.896 110.614 129.104 110.866C129.316 111.118 129.638 111.244 130.07 111.244C130.386 111.244 130.68 111.17 130.952 111.022C131.228 110.87 131.482 110.662 131.714 110.398V105.922H132.782ZM135.489 107.14C135.681 106.724 135.917 106.4 136.197 106.168C136.477 105.932 136.819 105.814 137.223 105.814C137.351 105.814 137.473 105.828 137.589 105.856C137.709 105.884 137.815 105.928 137.907 105.988L137.829 106.786C137.805 106.886 137.745 106.936 137.649 106.936C137.593 106.936 137.511 106.924 137.403 106.9C137.295 106.876 137.173 106.864 137.037 106.864C136.845 106.864 136.673 106.892 136.521 106.948C136.373 107.004 136.239 107.088 136.119 107.2C136.003 107.308 135.897 107.444 135.801 107.608C135.709 107.768 135.625 107.952 135.549 108.16V112H134.475V105.922H135.087C135.203 105.922 135.283 105.944 135.327 105.988C135.371 106.032 135.401 106.108 135.417 106.216L135.489 107.14ZM142.046 109.264C141.554 109.28 141.134 109.32 140.786 109.384C140.442 109.444 140.16 109.524 139.94 109.624C139.724 109.724 139.566 109.842 139.466 109.978C139.37 110.114 139.322 110.266 139.322 110.434C139.322 110.594 139.348 110.732 139.4 110.848C139.452 110.964 139.522 111.06 139.61 111.136C139.702 111.208 139.808 111.262 139.928 111.298C140.052 111.33 140.184 111.346 140.324 111.346C140.512 111.346 140.684 111.328 140.84 111.292C140.996 111.252 141.142 111.196 141.278 111.124C141.418 111.052 141.55 110.966 141.674 110.866C141.802 110.766 141.926 110.652 142.046 110.524V109.264ZM138.596 106.78C138.932 106.456 139.294 106.214 139.682 106.054C140.07 105.894 140.5 105.814 140.972 105.814C141.312 105.814 141.614 105.87 141.878 105.982C142.142 106.094 142.364 106.25 142.544 106.45C142.724 106.65 142.86 106.892 142.952 107.176C143.044 107.46 143.09 107.772 143.09 108.112V112H142.616C142.512 112 142.432 111.984 142.376 111.952C142.32 111.916 142.276 111.848 142.244 111.748L142.124 111.172C141.964 111.32 141.808 111.452 141.656 111.568C141.504 111.68 141.344 111.776 141.176 111.856C141.008 111.932 140.828 111.99 140.636 112.03C140.448 112.074 140.238 112.096 140.006 112.096C139.77 112.096 139.548 112.064 139.34 112C139.132 111.932 138.95 111.832 138.794 111.7C138.642 111.568 138.52 111.402 138.428 111.202C138.34 110.998 138.296 110.758 138.296 110.482C138.296 110.242 138.362 110.012 138.494 109.792C138.626 109.568 138.84 109.37 139.136 109.198C139.432 109.026 139.818 108.886 140.294 108.778C140.77 108.666 141.354 108.602 142.046 108.586V108.112C142.046 107.64 141.944 107.284 141.74 107.044C141.536 106.8 141.238 106.678 140.846 106.678C140.582 106.678 140.36 106.712 140.18 106.78C140.004 106.844 139.85 106.918 139.718 107.002C139.59 107.082 139.478 107.156 139.382 107.224C139.29 107.288 139.198 107.32 139.106 107.32C139.034 107.32 138.972 107.302 138.92 107.266C138.868 107.226 138.824 107.178 138.788 107.122L138.596 106.78ZM146.501 112.096C146.021 112.096 145.651 111.962 145.391 111.694C145.135 111.426 145.007 111.04 145.007 110.536V106.816H144.275C144.211 106.816 144.157 106.798 144.113 106.762C144.069 106.722 144.047 106.662 144.047 106.582V106.156L145.043 106.03L145.289 104.152C145.301 104.092 145.327 104.044 145.367 104.008C145.411 103.968 145.467 103.948 145.535 103.948H146.075V106.042H147.833V106.816H146.075V110.464C146.075 110.72 146.137 110.91 146.261 111.034C146.385 111.158 146.545 111.22 146.741 111.22C146.853 111.22 146.949 111.206 147.029 111.178C147.113 111.146 147.185 111.112 147.245 111.076C147.305 111.04 147.355 111.008 147.395 110.98C147.439 110.948 147.477 110.932 147.509 110.932C147.565 110.932 147.615 110.966 147.659 111.034L147.971 111.544C147.787 111.716 147.565 111.852 147.305 111.952C147.045 112.048 146.777 112.096 146.501 112.096ZM152.969 108.298C152.969 108.05 152.933 107.824 152.861 107.62C152.793 107.412 152.691 107.234 152.555 107.086C152.423 106.934 152.261 106.818 152.069 106.738C151.877 106.654 151.659 106.612 151.415 106.612C150.903 106.612 150.497 106.762 150.197 107.062C149.901 107.358 149.717 107.77 149.645 108.298H152.969ZM153.833 111.148C153.701 111.308 153.543 111.448 153.359 111.568C153.175 111.684 152.977 111.78 152.765 111.856C152.557 111.932 152.341 111.988 152.117 112.024C151.893 112.064 151.671 112.084 151.451 112.084C151.031 112.084 150.643 112.014 150.287 111.874C149.935 111.73 149.629 111.522 149.369 111.25C149.113 110.974 148.913 110.634 148.769 110.23C148.625 109.826 148.553 109.362 148.553 108.838C148.553 108.414 148.617 108.018 148.745 107.65C148.877 107.282 149.065 106.964 149.309 106.696C149.553 106.424 149.851 106.212 150.203 106.06C150.555 105.904 150.951 105.826 151.391 105.826C151.755 105.826 152.091 105.888 152.399 106.012C152.711 106.132 152.979 106.308 153.203 106.54C153.431 106.768 153.609 107.052 153.737 107.392C153.865 107.728 153.929 108.112 153.929 108.544C153.929 108.712 153.911 108.824 153.875 108.88C153.839 108.936 153.771 108.964 153.671 108.964H149.609C149.621 109.348 149.673 109.682 149.765 109.966C149.861 110.25 149.993 110.488 150.161 110.68C150.329 110.868 150.529 111.01 150.761 111.106C150.993 111.198 151.253 111.244 151.541 111.244C151.809 111.244 152.039 111.214 152.231 111.154C152.427 111.09 152.595 111.022 152.735 110.95C152.875 110.878 152.991 110.812 153.083 110.752C153.179 110.688 153.261 110.656 153.329 110.656C153.417 110.656 153.485 110.69 153.533 110.758L153.833 111.148ZM161.605 109.264C161.113 109.28 160.693 109.32 160.345 109.384C160.001 109.444 159.719 109.524 159.499 109.624C159.283 109.724 159.125 109.842 159.025 109.978C158.929 110.114 158.881 110.266 158.881 110.434C158.881 110.594 158.907 110.732 158.959 110.848C159.011 110.964 159.081 111.06 159.169 111.136C159.261 111.208 159.367 111.262 159.487 111.298C159.611 111.33 159.743 111.346 159.883 111.346C160.071 111.346 160.243 111.328 160.399 111.292C160.555 111.252 160.701 111.196 160.837 111.124C160.977 111.052 161.109 110.966 161.233 110.866C161.361 110.766 161.485 110.652 161.605 110.524V109.264ZM158.155 106.78C158.491 106.456 158.853 106.214 159.241 106.054C159.629 105.894 160.059 105.814 160.531 105.814C160.871 105.814 161.173 105.87 161.437 105.982C161.701 106.094 161.923 106.25 162.103 106.45C162.283 106.65 162.419 106.892 162.511 107.176C162.603 107.46 162.649 107.772 162.649 108.112V112H162.175C162.071 112 161.991 111.984 161.935 111.952C161.879 111.916 161.835 111.848 161.803 111.748L161.683 111.172C161.523 111.32 161.367 111.452 161.215 111.568C161.063 111.68 160.903 111.776 160.735 111.856C160.567 111.932 160.387 111.99 160.195 112.03C160.007 112.074 159.797 112.096 159.565 112.096C159.329 112.096 159.107 112.064 158.899 112C158.691 111.932 158.509 111.832 158.353 111.7C158.201 111.568 158.079 111.402 157.987 111.202C157.899 110.998 157.855 110.758 157.855 110.482C157.855 110.242 157.921 110.012 158.053 109.792C158.185 109.568 158.399 109.37 158.695 109.198C158.991 109.026 159.377 108.886 159.853 108.778C160.329 108.666 160.913 108.602 161.605 108.586V108.112C161.605 107.64 161.503 107.284 161.299 107.044C161.095 106.8 160.797 106.678 160.405 106.678C160.141 106.678 159.919 106.712 159.739 106.78C159.563 106.844 159.409 106.918 159.277 107.002C159.149 107.082 159.037 107.156 158.941 107.224C158.849 107.288 158.757 107.32 158.665 107.32C158.593 107.32 158.531 107.302 158.479 107.266C158.427 107.226 158.383 107.178 158.347 107.122L158.155 106.78ZM165.284 106.804C165.416 106.656 165.556 106.522 165.704 106.402C165.852 106.282 166.008 106.18 166.172 106.096C166.34 106.008 166.516 105.942 166.7 105.898C166.888 105.85 167.09 105.826 167.306 105.826C167.638 105.826 167.93 105.882 168.182 105.994C168.438 106.102 168.65 106.258 168.818 106.462C168.99 106.662 169.12 106.904 169.208 107.188C169.296 107.472 169.34 107.786 169.34 108.13V112H168.266V108.13C168.266 107.67 168.16 107.314 167.948 107.062C167.74 106.806 167.422 106.678 166.994 106.678C166.678 106.678 166.382 106.754 166.106 106.906C165.834 107.058 165.582 107.264 165.35 107.524V112H164.276V105.922H164.918C165.07 105.922 165.164 105.996 165.2 106.144L165.284 106.804ZM174.507 106.924C174.459 107.012 174.385 107.056 174.285 107.056C174.225 107.056 174.157 107.034 174.081 106.99C174.005 106.946 173.911 106.898 173.799 106.846C173.691 106.79 173.561 106.74 173.409 106.696C173.257 106.648 173.077 106.624 172.869 106.624C172.689 106.624 172.527 106.648 172.383 106.696C172.239 106.74 172.115 106.802 172.011 106.882C171.911 106.962 171.833 107.056 171.777 107.164C171.725 107.268 171.699 107.382 171.699 107.506C171.699 107.662 171.743 107.792 171.831 107.896C171.923 108 172.043 108.09 172.191 108.166C172.339 108.242 172.507 108.31 172.695 108.37C172.883 108.426 173.075 108.488 173.271 108.556C173.471 108.62 173.665 108.692 173.853 108.772C174.041 108.852 174.209 108.952 174.357 109.072C174.505 109.192 174.623 109.34 174.711 109.516C174.803 109.688 174.849 109.896 174.849 110.14C174.849 110.42 174.799 110.68 174.699 110.92C174.599 111.156 174.451 111.362 174.255 111.538C174.059 111.71 173.819 111.846 173.535 111.946C173.251 112.046 172.923 112.096 172.551 112.096C172.127 112.096 171.743 112.028 171.399 111.892C171.055 111.752 170.763 111.574 170.523 111.358L170.775 110.95C170.807 110.898 170.845 110.858 170.889 110.83C170.933 110.802 170.989 110.788 171.057 110.788C171.129 110.788 171.205 110.816 171.285 110.872C171.365 110.928 171.461 110.99 171.573 111.058C171.689 111.126 171.829 111.188 171.993 111.244C172.157 111.3 172.361 111.328 172.605 111.328C172.813 111.328 172.995 111.302 173.151 111.25C173.307 111.194 173.437 111.12 173.541 111.028C173.645 110.936 173.721 110.83 173.769 110.71C173.821 110.59 173.847 110.462 173.847 110.326C173.847 110.158 173.801 110.02 173.709 109.912C173.621 109.8 173.503 109.706 173.355 109.63C173.207 109.55 173.037 109.482 172.845 109.426C172.657 109.366 172.463 109.304 172.263 109.24C172.067 109.176 171.873 109.104 171.681 109.024C171.493 108.94 171.325 108.836 171.177 108.712C171.029 108.588 170.909 108.436 170.817 108.256C170.729 108.072 170.685 107.85 170.685 107.59C170.685 107.358 170.733 107.136 170.829 106.924C170.925 106.708 171.065 106.52 171.249 106.36C171.433 106.196 171.659 106.066 171.927 105.97C172.195 105.874 172.501 105.826 172.845 105.826C173.245 105.826 173.603 105.89 173.919 106.018C174.239 106.142 174.515 106.314 174.747 106.534L174.507 106.924ZM184.541 105.922L182.573 112H181.727C181.623 112 181.551 111.932 181.51 111.796L180.167 107.674C180.135 107.582 180.109 107.49 180.089 107.398C180.069 107.302 180.049 107.208 180.029 107.116C180.009 107.208 179.989 107.302 179.969 107.398C179.949 107.49 179.923 107.584 179.891 107.68L178.523 111.796C178.487 111.932 178.407 112 178.283 112H177.479L175.51 105.922H176.351C176.435 105.922 176.505 105.944 176.561 105.988C176.621 106.032 176.661 106.084 176.681 106.144L177.845 110.056C177.913 110.344 177.967 110.616 178.007 110.872C178.043 110.74 178.079 110.606 178.115 110.47C178.155 110.334 178.197 110.196 178.241 110.056L179.525 106.12C179.545 106.06 179.579 106.01 179.627 105.97C179.679 105.93 179.741 105.91 179.813 105.91H180.281C180.361 105.91 180.427 105.93 180.479 105.97C180.531 106.01 180.567 106.06 180.587 106.12L181.841 110.056C181.885 110.196 181.925 110.334 181.961 110.47C181.997 110.606 182.031 110.74 182.062 110.872C182.082 110.74 182.107 110.608 182.135 110.476C182.167 110.34 182.201 110.2 182.237 110.056L183.425 106.144C183.445 106.08 183.483 106.028 183.539 105.988C183.595 105.944 183.661 105.922 183.737 105.922H184.541ZM189.566 108.298C189.566 108.05 189.53 107.824 189.458 107.62C189.39 107.412 189.288 107.234 189.152 107.086C189.02 106.934 188.858 106.818 188.666 106.738C188.474 106.654 188.256 106.612 188.012 106.612C187.5 106.612 187.094 106.762 186.794 107.062C186.498 107.358 186.314 107.77 186.242 108.298H189.566ZM190.43 111.148C190.298 111.308 190.14 111.448 189.956 111.568C189.772 111.684 189.574 111.78 189.362 111.856C189.154 111.932 188.938 111.988 188.714 112.024C188.49 112.064 188.268 112.084 188.048 112.084C187.628 112.084 187.24 112.014 186.884 111.874C186.532 111.73 186.226 111.522 185.966 111.25C185.71 110.974 185.51 110.634 185.366 110.23C185.222 109.826 185.15 109.362 185.15 108.838C185.15 108.414 185.214 108.018 185.342 107.65C185.474 107.282 185.662 106.964 185.906 106.696C186.15 106.424 186.448 106.212 186.8 106.06C187.152 105.904 187.548 105.826 187.988 105.826C188.352 105.826 188.688 105.888 188.996 106.012C189.308 106.132 189.576 106.308 189.8 106.54C190.028 106.768 190.206 107.052 190.334 107.392C190.462 107.728 190.526 108.112 190.526 108.544C190.526 108.712 190.508 108.824 190.472 108.88C190.436 108.936 190.368 108.964 190.268 108.964H186.206C186.218 109.348 186.27 109.682 186.362 109.966C186.458 110.25 186.59 110.488 186.758 110.68C186.926 110.868 187.126 111.01 187.358 111.106C187.59 111.198 187.85 111.244 188.138 111.244C188.406 111.244 188.636 111.214 188.828 111.154C189.024 111.09 189.192 111.022 189.332 110.95C189.472 110.878 189.588 110.812 189.68 110.752C189.776 110.688 189.858 110.656 189.926 110.656C190.014 110.656 190.082 110.69 190.13 110.758L190.43 111.148ZM192.852 107.14C193.044 106.724 193.28 106.4 193.56 106.168C193.84 105.932 194.182 105.814 194.586 105.814C194.714 105.814 194.836 105.828 194.952 105.856C195.072 105.884 195.178 105.928 195.27 105.988L195.192 106.786C195.168 106.886 195.108 106.936 195.012 106.936C194.956 106.936 194.874 106.924 194.766 106.9C194.658 106.876 194.536 106.864 194.4 106.864C194.208 106.864 194.036 106.892 193.884 106.948C193.736 107.004 193.602 107.088 193.482 107.2C193.366 107.308 193.26 107.444 193.164 107.608C193.072 107.768 192.988 107.952 192.912 108.16V112H191.838V105.922H192.45C192.566 105.922 192.646 105.944 192.69 105.988C192.734 106.032 192.764 106.108 192.78 106.216L192.852 107.14ZM199.714 106.924C199.666 107.012 199.592 107.056 199.492 107.056C199.432 107.056 199.364 107.034 199.288 106.99C199.212 106.946 199.118 106.898 199.006 106.846C198.898 106.79 198.768 106.74 198.616 106.696C198.464 106.648 198.284 106.624 198.076 106.624C197.896 106.624 197.734 106.648 197.59 106.696C197.446 106.74 197.322 106.802 197.218 106.882C197.118 106.962 197.04 107.056 196.984 107.164C196.932 107.268 196.906 107.382 196.906 107.506C196.906 107.662 196.95 107.792 197.038 107.896C197.13 108 197.25 108.09 197.398 108.166C197.546 108.242 197.714 108.31 197.902 108.37C198.09 108.426 198.282 108.488 198.478 108.556C198.678 108.62 198.872 108.692 199.06 108.772C199.248 108.852 199.416 108.952 199.564 109.072C199.712 109.192 199.83 109.34 199.918 109.516C200.01 109.688 200.056 109.896 200.056 110.14C200.056 110.42 200.006 110.68 199.906 110.92C199.806 111.156 199.658 111.362 199.462 111.538C199.266 111.71 199.026 111.846 198.742 111.946C198.458 112.046 198.13 112.096 197.758 112.096C197.334 112.096 196.95 112.028 196.606 111.892C196.262 111.752 195.97 111.574 195.73 111.358L195.982 110.95C196.014 110.898 196.052 110.858 196.096 110.83C196.14 110.802 196.196 110.788 196.264 110.788C196.336 110.788 196.412 110.816 196.492 110.872C196.572 110.928 196.668 110.99 196.78 111.058C196.896 111.126 197.036 111.188 197.2 111.244C197.364 111.3 197.568 111.328 197.812 111.328C198.02 111.328 198.202 111.302 198.358 111.25C198.514 111.194 198.644 111.12 198.748 111.028C198.852 110.936 198.928 110.83 198.976 110.71C199.028 110.59 199.054 110.462 199.054 110.326C199.054 110.158 199.008 110.02 198.916 109.912C198.828 109.8 198.71 109.706 198.562 109.63C198.414 109.55 198.244 109.482 198.052 109.426C197.864 109.366 197.67 109.304 197.47 109.24C197.274 109.176 197.08 109.104 196.888 109.024C196.7 108.94 196.532 108.836 196.384 108.712C196.236 108.588 196.116 108.436 196.024 108.256C195.936 108.072 195.892 107.85 195.892 107.59C195.892 107.358 195.94 107.136 196.036 106.924C196.132 106.708 196.272 106.52 196.456 106.36C196.64 106.196 196.866 106.066 197.134 105.97C197.402 105.874 197.708 105.826 198.052 105.826C198.452 105.826 198.81 105.89 199.126 106.018C199.446 106.142 199.722 106.314 199.954 106.534L199.714 106.924ZM201.186 111.34C201.186 111.236 201.204 111.138 201.24 111.046C201.28 110.954 201.332 110.874 201.396 110.806C201.464 110.738 201.544 110.684 201.636 110.644C201.728 110.604 201.826 110.584 201.93 110.584C202.034 110.584 202.132 110.604 202.224 110.644C202.316 110.684 202.396 110.738 202.464 110.806C202.532 110.874 202.586 110.954 202.626 111.046C202.666 111.138 202.686 111.236 202.686 111.34C202.686 111.448 202.666 111.548 202.626 111.64C202.586 111.728 202.532 111.806 202.464 111.874C202.396 111.942 202.316 111.994 202.224 112.03C202.132 112.07 202.034 112.09 201.93 112.09C201.826 112.09 201.728 112.07 201.636 112.03C201.544 111.994 201.464 111.942 201.396 111.874C201.332 111.806 201.28 111.728 201.24 111.64C201.204 111.548 201.186 111.448 201.186 111.34Z" fill="#1A1C29"/>
<defs>
<linearGradient id="paint0_linear_1_1395" x1="137.5" y1="0" x2="137.5" y2="48" gradientUnits="userSpaceOnUse">
<stop stop-color="#685EDD"/>
<stop offset="1" stop-color="#DA8BFF"/>
</linearGradient>
</defs>
</svg>
