<svg width="20" height="20" viewBox="0 0 20 20" fill="none" xmlns="http://www.w3.org/2000/svg">
<path d="M10.006 16.2344C10.006 16.5867 9.80245 16.9068 9.48387 17.0562C9.36069 17.1145 9.2287 17.1426 9.09757 17.1426C8.88992 17.1426 8.68419 17.0713 8.51802 16.9335L3.55274 12.819H0.908231C0.406716 12.8194 0 12.4125 0 11.911V8.29247C0 7.79074 0.406716 7.38403 0.908231 7.38403H3.55296L8.51824 3.26958C8.78953 3.04473 9.16572 2.99679 9.48408 3.14727C9.80245 3.29667 10.0062 3.61697 10.0062 3.96908L10.006 16.2344ZM13.4964 14.8152C13.4743 14.8167 13.453 14.8176 13.4311 14.8176C13.1912 14.8176 12.9599 14.7228 12.789 14.5516L12.6675 14.4298C12.3489 14.1118 12.3115 13.6082 12.5798 13.2466C13.26 12.3295 13.619 11.2425 13.619 10.1021C13.619 8.87546 13.2114 7.72496 12.4401 6.77482C12.1464 6.41367 12.1735 5.88916 12.5026 5.56026L12.6239 5.4388C12.8053 5.25737 13.0484 5.15849 13.3116 5.17418C13.5678 5.18708 13.807 5.30767 13.9696 5.5063C15.0394 6.81544 15.6046 8.4049 15.6046 10.1023C15.6046 11.6831 15.1048 13.1879 14.1589 14.4532C14.0009 14.6641 13.7593 14.7965 13.4964 14.8152ZM17.2514 17.622C17.0872 17.8161 16.8497 17.9326 16.5954 17.9434C16.5829 17.9438 16.5702 17.9442 16.5573 17.9442C16.3168 17.9442 16.0859 17.8492 15.915 17.6783L15.7957 17.559C15.4623 17.2258 15.4397 16.6929 15.7428 16.3322C17.2076 14.5901 18.0146 12.3777 18.0146 10.1021C18.0146 7.73507 17.1506 5.45643 15.5824 3.68597C15.2645 3.32655 15.2806 2.78247 15.619 2.44282L15.7381 2.32352C15.9148 2.14595 16.1444 2.04814 16.4077 2.05653C16.6577 2.06362 16.8942 2.17411 17.0603 2.36113C18.9559 4.49532 20 7.24473 20 10.1021C20.0004 12.8513 19.0243 15.522 17.2514 17.622Z" fill="#6769D6"/>
</svg>
