<svg width="20" height="20" viewBox="0 0 20 20" fill="none" xmlns="http://www.w3.org/2000/svg">
<path d="M8.30875 4.64742L8.81063 6.04117C9.36813 7.58805 10.5863 8.80617 12.1331 9.36367L13.5269 9.86555C13.6525 9.91117 13.6525 10.0893 13.5269 10.1343L12.1331 10.6362C10.5863 11.1937 9.36813 12.4118 8.81063 13.9587L8.30875 15.3524C8.26313 15.478 8.085 15.478 8.04 15.3524L7.53813 13.9587C6.98063 12.4118 5.7625 11.1937 4.21563 10.6362L2.82188 10.1343C2.69625 10.0887 2.69625 9.91055 2.82188 9.86555L4.21563 9.36367C5.7625 8.80617 6.98063 7.58805 7.53813 6.04117L8.04 4.64742C8.085 4.52117 8.26313 4.52117 8.30875 4.64742Z" fill="url(#paint0_linear_1_1816)"/>
<path d="M14.5827 1.29828L14.837 2.00391C15.1195 2.78703 15.7364 3.40391 16.5195 3.68641L17.2252 3.94078C17.2889 3.96391 17.2889 4.05391 17.2252 4.07703L16.5195 4.33141C15.7364 4.61391 15.1195 5.23078 14.837 6.01391L14.5827 6.71953C14.5595 6.78328 14.4695 6.78328 14.4464 6.71953L14.192 6.01391C13.9095 5.23078 13.2927 4.61391 12.5095 4.33141L11.8039 4.07703C11.7402 4.05391 11.7402 3.96391 11.8039 3.94078L12.5095 3.68641C13.2927 3.40391 13.9095 2.78703 14.192 2.00391L14.4464 1.29828C14.4695 1.23391 14.5602 1.23391 14.5827 1.29828Z" fill="url(#paint1_linear_1_1816)"/>
<path d="M14.5825 13.2812L14.8369 13.9868C15.1194 14.77 15.7363 15.3868 16.5194 15.6693L17.225 15.9237C17.2888 15.9468 17.2888 16.0368 17.225 16.06L16.5194 16.3143C15.7363 16.5968 15.1194 17.2137 14.8369 17.9968L14.5825 18.7025C14.5594 18.7662 14.4694 18.7662 14.4463 18.7025L14.1919 17.9968C13.9094 17.2137 13.2925 16.5968 12.5094 16.3143L11.8038 16.06C11.74 16.0368 11.74 15.9468 11.8038 15.9237L12.5094 15.6693C13.2925 15.3868 13.9094 14.77 14.1919 13.9868L14.4463 13.2812C14.4694 13.2175 14.56 13.2175 14.5825 13.2812Z" fill="url(#paint2_linear_1_1816)"/>
<defs>
<linearGradient id="paint0_linear_1_1816" x1="10.1196" y1="7.48581" x2="10.5705" y2="13.3472" gradientUnits="userSpaceOnUse">
<stop stop-color="#FAC372"/>
<stop offset="1" stop-color="#FAA011" stop-opacity="0.49"/>
</linearGradient>
<linearGradient id="paint1_linear_1_1816" x1="15.4997" y1="2.73549" x2="15.7281" y2="5.70406" gradientUnits="userSpaceOnUse">
<stop stop-color="#FAC372"/>
<stop offset="1" stop-color="#FAA011" stop-opacity="0.49"/>
</linearGradient>
<linearGradient id="paint2_linear_1_1816" x1="15.4996" y1="14.7188" x2="15.7279" y2="17.6871" gradientUnits="userSpaceOnUse">
<stop stop-color="#FAC372"/>
<stop offset="1" stop-color="#FAA011" stop-opacity="0.49"/>
</linearGradient>
</defs>
</svg>
