<svg width="87" height="87" viewBox="0 0 87 87" fill="none" xmlns="http://www.w3.org/2000/svg">
<rect x="7.25" y="7.5" width="72" height="72" rx="36" fill="url(#paint0_linear_123_3822)"/>
<rect x="3.75" y="4" width="79" height="79" rx="39.5" stroke="black" stroke-opacity="0.08" stroke-width="7"/>
<path d="M43.0948 26.8076C37.8431 26.8076 33.5858 31.065 33.5858 36.3167V41.2779C33.5858 46.5296 37.8431 50.7869 43.0948 50.7869C47.9261 50.7869 51.9159 47.1839 52.5237 42.5182L44.7485 42.5182C44.0635 42.5182 43.5082 41.9629 43.5082 41.2779C43.5082 40.5929 44.0635 40.0376 44.7485 40.0376L52.6038 40.0376V37.557H44.7485C44.0635 37.557 43.5082 37.0017 43.5082 36.3167C43.5082 35.6317 44.0635 35.0764 44.7485 35.0764H52.5237C51.9159 30.4107 47.9261 26.8076 43.0948 26.8076Z" fill="white"/>
<path fill-rule="evenodd" clip-rule="evenodd" d="M29.8648 38.3838C30.5498 38.3838 31.1051 38.9392 31.1051 39.6242V41.2779C31.1051 47.8996 36.4731 53.2676 43.0948 53.2676C49.7165 53.2676 55.0845 47.8996 55.0845 41.2779V39.6242C55.0845 38.9392 55.6398 38.3838 56.3248 38.3838C57.0098 38.3838 57.5651 38.9392 57.5651 39.6242V41.2779C57.5651 48.8518 51.7462 55.0667 44.3351 55.6958V59.4691C44.3351 60.1541 43.7798 60.7094 43.0948 60.7094C42.4098 60.7094 41.8545 60.1541 41.8545 59.4691V55.6958C34.4434 55.0667 28.6245 48.8518 28.6245 41.2779V39.6242C28.6245 38.9392 29.1798 38.3838 29.8648 38.3838Z" fill="white"/>
<defs>
<linearGradient id="paint0_linear_123_3822" x1="43.25" y1="7.5" x2="43.25" y2="79.5" gradientUnits="userSpaceOnUse">
<stop stop-color="#685EDD"/>
<stop offset="1" stop-color="#DA8BFF"/>
</linearGradient>
</defs>
</svg>
