<svg width="24" height="24" viewBox="0 0 24 24" fill="none" xmlns="http://www.w3.org/2000/svg">
<path d="M20.5235 7.28389C20.5235 7.26415 20.5235 7.26415 20.5235 7.24442C20.5038 7.20496 20.5038 7.1655 20.4841 7.12604V7.1063C20.4643 7.06684 20.4249 7.02738 20.4051 7.00765L20.3854 6.98792C20.3657 6.96818 20.3262 6.94845 20.3065 6.92872L20.2868 6.90899H20.267L20.2473 6.88926L11.8615 2.72594C11.7036 2.64702 11.5063 2.64702 11.3287 2.72594L8.50714 4.12687L16.9324 8.44804L16.9522 8.46777C16.9719 8.46777 16.9719 8.4875 16.9916 8.4875C17.0114 8.50723 17.0114 8.52696 17.0311 8.54669C17.0311 8.56642 17.0311 8.56642 17.0311 8.58616V8.60589V13.1836C17.0311 13.2625 16.9916 13.3217 16.9324 13.3611L15.2355 14.2491C15.1369 14.3083 15.0185 14.2688 14.9593 14.1701C14.9396 14.1504 14.9396 14.1109 14.9396 14.0715V9.59246L6.41561 5.19236L6.39588 5.17263L2.98236 6.86953L2.96263 6.88926H2.9429L2.92316 6.90899C2.90343 6.92872 2.86397 6.94845 2.84424 6.96818L2.82451 6.98792C2.78504 7.02738 2.76531 7.06684 2.72585 7.1063V7.12604C2.70612 7.1655 2.68639 7.20496 2.68639 7.24442C2.68639 7.26415 2.68639 7.26415 2.68639 7.28389C2.68639 7.32335 2.66666 7.34308 2.66666 7.38254V7.40227V16.5971C2.66666 16.8141 2.78504 17.0312 3.00209 17.1298L11.309 21.2734C11.4274 21.3326 11.5655 21.3523 11.7036 21.3129L11.7431 21.2932C11.7825 21.2932 11.8023 21.2734 11.8417 21.2537L20.2078 17.1101C20.4051 17.0114 20.5433 16.8141 20.5433 16.5774V7.40227V7.38254C20.5235 7.34308 20.5235 7.32335 20.5235 7.28389Z" fill="url(#paint0_linear_54_328)"/>
<defs>
<linearGradient id="paint0_linear_54_328" x1="11.605" y1="2.66675" x2="11.605" y2="21.3334" gradientUnits="userSpaceOnUse">
<stop stop-color="#685EDD"/>
<stop offset="1" stop-color="#DA8BFF"/>
</linearGradient>
</defs>
</svg>
